<svg xmlns="http://www.w3.org/2000/svg" version="1.1" xmlns:xlink="http://www.w3.org/1999/xlink" xmlns:svgjs="http://svgjs.dev/svgjs" width="80" height="80"><svg width="80" height="80" viewBox="0 0 80 80" fill="none" xmlns="http://www.w3.org/2000/svg">
<circle cx="40" cy="40" r="40" fill="#64C4FF"></circle>
<mask id="SvgjsMask1018" style="mask-type:alpha" maskUnits="userSpaceOnUse" x="0" y="0" width="80" height="80">
<circle cx="40" cy="40" r="40" fill="#E2F4FF"></circle>
</mask>
<g mask="url(#mask0_349_524)">
<g clip-path="url(#clip0_349_524)">
<path d="M18.5393 53.0881C33.0489 51.1149 47.8295 51.1456 62.5501 53.2549C62.0124 55.7222 61.4183 58.1774 60.7686 60.6176C47.8334 58.4612 34.5566 58.3685 21.5923 60.344C21.2001 60.4037 20.7822 60.4624 20.4199 60.3006C20.1128 60.1633 19.8929 59.8875 19.7018 59.6109C18.378 57.6949 17.8768 55.2301 18.5393 53.0884V53.0881Z" fill="#FF8502"></path>
<path opacity="0.3" d="M62.5499 53.255C62.4827 53.5629 62.4149 53.8708 62.3463 54.1782C47.4716 52.2719 34.6166 52.0672 18.3145 54.1029C18.3623 53.7591 18.4367 53.4196 18.5393 53.0882C33.0486 51.1147 47.8295 51.1457 62.5499 53.255Z" fill="white"></path>
<path d="M18.5737 53.0804C17.9735 53.3119 17.7902 54.066 17.7606 54.7086C17.6751 56.5499 18.1633 58.4136 19.1405 59.9763C19.3584 60.3252 19.7296 60.7039 20.1144 60.5586C20.4687 60.425 20.5301 59.9561 20.5188 59.5774C20.4571 57.524 19.9656 55.484 19.0849 53.6281C19.0027 53.4549 18.9117 53.2765 18.7574 53.1625C18.6031 53.0485 18.3671 53.022 18.5737 53.0801V53.0804Z" fill="#FF8502"></path>
<path d="M20.0928 56.0159C19.9982 56.1136 19.8867 56.2203 19.7661 56.3302C19.8372 57.3205 19.8569 58.3402 19.5858 58.4271C19.2099 58.5479 18.7353 57.8718 18.4263 57.3249C18.4028 57.336 18.3804 57.346 18.3594 57.3545C18.6346 58.2522 18.9881 59.3507 19.3692 60.1126C19.4884 60.3511 19.6702 60.6183 19.9047 60.5757C20.1238 60.5359 20.2322 60.2498 20.2925 60.0019C20.5301 59.0213 20.3921 57.3999 20.0928 56.0156V56.0159Z" fill="#E36A00"></path>
<path d="M62.482 53.062C60.6714 54.8903 59.9398 57.7167 60.6357 60.194C60.6924 60.3962 60.795 60.6297 61.0027 60.662C61.2246 60.6966 61.3963 60.4783 61.5089 60.2841C62.378 58.7864 62.9467 57.1153 63.1715 55.3982C63.2332 54.9265 63.2681 54.4374 63.127 53.9829C62.9859 53.5287 62.6335 53.1126 62.482 53.062Z" fill="#FF8502"></path>
<path d="M62.5215 57.2192C62.2128 57.7658 61.7379 58.4419 61.362 58.3213C61.0912 58.2342 61.1108 57.2148 61.1817 56.2244C61.0611 56.1146 60.9496 56.0078 60.855 55.9102C60.5557 57.2944 60.4177 58.9158 60.6553 59.8965C60.7153 60.1443 60.8237 60.4304 61.0431 60.4702C61.2776 60.5125 61.4594 60.2456 61.5786 60.0071C61.9597 59.2453 62.3132 58.1468 62.5884 57.2491C62.5671 57.2405 62.5447 57.2305 62.5215 57.2195V57.2192Z" fill="#E36A00"></path>
<path d="M23.253 56.6802C23.9534 61.1291 23.5636 65.7453 22.0933 70.0887C22.525 70.964 23.2696 71.681 24.1605 72.0791C24.7231 72.3303 25.4063 72.5162 25.6602 73.0778C25.7863 73.3566 25.0451 79.2302 25.0315 79.5361C24.8697 83.1623 25.0221 82.8842 25.4248 85.1391C34.1392 88.8803 41.8429 89.0114 49.8896 87.3884C51.4275 87.0783 53.791 86.7621 54.9704 85.7269C57.2597 79.8897 55.4724 77.0215 56.4291 73.8468C56.6794 73.0158 57.4547 72.0108 57.554 71.1485C57.6663 70.1753 57.4157 69.2024 57.2144 68.2438C56.4103 64.4127 56.3802 60.4209 57.1264 56.5781C52.294 55.1474 47.2324 54.7095 42.2111 54.2787C38.0754 53.9241 33.9163 53.5694 29.7801 53.915C27.2836 54.1235 24.5693 54.7261 23.2527 56.6802H23.253Z" fill="#FF8502"></path>
<path d="M25.0875 84.956C23.7496 85.1258 22.3661 85.1579 21.078 84.7593C19.7899 84.3604 18.6014 83.4774 18.0886 82.23C17.7766 81.4709 17.7293 80.6313 17.7262 79.8106C17.7176 77.3341 18.08 74.8569 18.7977 72.4866C18.9455 71.9992 19.1175 71.4999 19.4646 71.1273C20.0563 70.4921 21.0017 70.3704 21.8655 70.2871C23.0858 71.4921 24.5127 72.4872 26.0653 73.2161C25.3541 76.5728 24.6391 79.9945 24.9785 83.409C25.0302 83.93 25.1066 84.4481 25.1804 84.9662C25.0751 84.9435 24.9697 84.9211 25.0872 84.956H25.0875Z" fill="#FF8502"></path>
<path d="M25.1807 84.9664C25.1069 84.4483 25.0305 83.9299 24.9788 83.4089C24.6394 79.9944 25.3541 76.573 26.0653 73.2163C25.852 73.1162 25.6407 73.0105 25.4321 72.9004C25.072 74.9375 24.4735 76.9246 23.4039 78.6826C22.2568 80.5676 20.4808 82.1561 18.4199 82.8548C19.0232 83.7733 20.0167 84.4306 21.078 84.7595C22.3661 85.1581 23.7499 85.126 25.0875 84.9562C24.9702 84.921 25.0756 84.9437 25.1807 84.9664Z" fill="#E36A00"></path>
<path d="M56.4777 73.8149C57.2149 72.897 57.4682 72.6339 58.1157 71.7376C59.3695 71.5332 60.8111 71.5935 61.2927 71.9523C62.383 72.765 62.5991 77.4432 62.6942 78.6115C62.8408 80.4088 63.2009 84.3209 58.8697 85.4634C57.6289 85.7907 56.3237 85.7686 55.0444 85.6695C55.836 81.6865 56.4777 78.3207 56.4777 73.8146V73.8149Z" fill="#FF8502"></path>
<path d="M61.1807 84.63C59.5612 83.4897 58.3398 81.73 57.6771 79.8389C56.9964 77.8969 56.8241 75.8288 56.8957 73.7612C56.6686 73.8257 56.4401 73.8852 56.2106 73.9386C56.2084 76.7804 56.199 79.666 55.604 82.4307C55.271 84.1345 54.8771 84.9473 54.6323 85.6156C54.7399 85.6153 54.8475 85.6151 54.7255 85.625C58.5688 86.3067 59.6359 85.7205 61.1807 84.63Z" fill="#E36A00"></path>
<path d="M56.6451 86.1968C56.1256 86.1968 55.56 86.1721 54.9379 86.1234L54.3377 86.0764L54.5797 85.5254C55.329 83.8196 55.8142 78.1583 56.002 73.8284L56.0164 73.4948L56.3433 73.4278C56.4277 73.4107 56.5436 73.4073 56.9324 73.3985C57.5302 73.3849 58.5303 73.3622 59.4544 73.2485C60.8947 73.0712 61.2233 72.7813 61.2899 72.6967C61.3123 72.6679 61.3148 72.6541 61.3107 72.6314C61.309 72.6242 61.3073 72.6164 61.3057 72.6092C61.1184 71.8864 58.9906 72.0219 57.716 72.103L57.3324 72.1273L57.2674 71.7486C57.2475 71.6324 57.2124 71.4435 57.1681 71.2045C56.4999 67.596 55.6947 62.6498 56.1574 60.2229C54.9697 60.0375 51.1265 59.5697 45.6568 59.3531C40.1974 59.1371 32.0431 59.1468 24.0003 60.4002C23.9843 64.8278 23.672 65.8823 23.0651 67.9299C22.8632 68.6116 22.6342 69.3842 22.3714 70.4368L22.3059 70.6991L22.0409 70.7525C19.8254 71.1981 19.652 71.6678 19.6456 71.6875C19.6381 71.711 19.6733 71.7702 19.7311 71.8316C20.089 72.2123 21.114 72.6026 22.3421 72.8264C23.6703 73.0685 25.0005 73.077 25.9005 72.8491C26.046 72.8123 26.1978 72.8519 26.3068 72.955C26.4971 73.1351 26.457 73.3716 26.4067 73.6712C26.3721 73.8771 26.3171 74.159 26.2474 74.5161C25.8261 76.6747 24.8395 81.7294 25.6297 84.8811L25.7434 85.3345L25.2818 85.4075C22.2295 85.8902 20.011 85.3572 18.6883 83.8229C15.9395 80.635 17.9802 74.1379 18.6507 72.0029C18.7292 71.7525 18.7973 71.5362 18.815 71.4559L18.8222 71.4576C18.8252 71.4471 18.828 71.4371 18.831 71.4277C18.958 71.0294 19.3881 70.4518 21.6075 69.9693C21.8473 69.0298 22.0578 68.3197 22.2453 67.6868C22.845 65.6632 23.1459 64.6474 23.1459 60.0348V59.6704L23.5058 59.6126C31.868 58.2698 40.3866 58.274 46.0601 58.5138C49.4207 58.6557 52.0771 58.8889 53.7137 59.0596C54.7783 59.1706 55.4978 59.2638 55.9138 59.3224C56.8171 59.4497 56.8569 59.4837 56.9532 59.5659L57.1034 59.6939L57.105 59.9587L57.086 60.0204C56.8838 60.6735 56.7278 62.159 57.1316 65.5274C57.3988 67.7537 57.8109 69.9795 58.009 71.049C58.0206 71.1115 58.0316 71.1707 58.0416 71.2261C59.7612 71.1226 61.7161 71.0853 62.11 72.3146L62.1147 72.3135C62.1219 72.345 62.1291 72.3769 62.1363 72.4084C62.1388 72.4186 62.1413 72.4289 62.1435 72.4391L62.1463 72.4513C62.8632 75.6096 63.1796 78.0971 63.1127 80.0521C63.046 82.003 62.5954 83.4359 61.735 84.4332C61.0509 85.226 60.118 85.737 58.8824 85.9948C58.2333 86.1304 57.502 86.1973 56.6442 86.1973L56.6451 86.1968ZM55.5661 85.3085C55.9436 85.3298 56.3007 85.3403 56.6382 85.3403C58.8523 85.3403 60.2223 84.8775 61.088 83.8736C62.505 82.2309 62.6463 78.9472 61.5192 73.583C60.5982 74.0931 58.8019 74.2107 56.9521 74.2527C56.9142 74.2536 56.876 74.2544 56.8387 74.2555C56.7408 76.3222 56.382 82.6495 55.5661 85.3082V85.3085ZM19.3502 72.6319C19.0114 73.726 18.4693 75.5889 18.2463 77.527C17.9454 80.1462 18.3119 82.0763 19.3361 83.2641C20.3905 84.4869 22.1928 84.9444 24.6979 84.6266C24.0509 81.3056 24.9604 76.6454 25.4082 74.3518C25.4458 74.1584 25.4842 73.9625 25.516 73.7924C23.4784 74.0782 20.5332 73.5313 19.3502 72.6319Z" fill="#3A3A3A"></path>
<path d="M56.6742 74.0325L56.0132 73.49C56.8001 72.5306 57.2363 71.8158 57.3088 71.5571L58.1322 71.7881C57.9477 72.4462 56.9696 73.6723 56.6742 74.0325Z" fill="#3A3A3A"></path>
<path d="M25.8296 73.6531C24.0312 72.8403 22.6067 71.8322 21.5952 70.6571L22.2433 70.0991C23.1729 71.1791 24.4981 72.1127 26.1817 72.8738L25.8296 73.6531Z" fill="#3A3A3A"></path>
<path d="M19.9265 61.012C19.6333 61.012 19.2372 60.8789 18.8392 60.3378C17.7221 58.8188 17.0308 54.6397 17.6651 53.2399C17.8894 52.745 18.2398 52.6437 18.4287 52.6277L18.455 52.6255L18.4816 52.6266C19.4629 52.6642 20.0775 54.4267 20.4202 55.8986C20.66 56.9288 20.8058 58.0229 20.8199 58.9007C20.8384 60.0631 20.6404 60.7165 20.1965 60.9566L20.1257 60.9951L20.0457 61.0051C20.0084 61.0098 19.9686 61.0123 19.9268 61.0123L19.9265 61.012ZM18.4932 53.5027C18.4014 53.6291 18.2113 54.1387 18.2982 55.4134C18.3745 56.5341 18.6417 57.8204 18.996 58.7704C19.315 59.6258 19.6303 60.0189 19.8256 60.1256C19.8983 59.9561 20.0189 59.4971 19.942 58.3922C19.8712 57.3764 19.6521 56.1933 19.3562 55.227C18.9822 54.0062 18.6315 53.5959 18.4935 53.503L18.4932 53.5027Z" fill="#3A3A3A"></path>
<path d="M60.8787 61.0122C60.837 61.0122 60.7971 61.0095 60.7598 61.0051L60.6798 60.9951L60.609 60.9566C60.1651 60.7165 59.9668 60.0631 59.9856 58.9007C59.9997 58.0229 60.1455 56.9286 60.3853 55.8984C60.728 54.4264 61.3426 52.6639 62.3239 52.6266L62.3505 52.6255L62.377 52.6277C62.5659 52.644 62.9164 52.745 63.1407 53.2399C63.7749 54.6394 63.0835 58.8185 61.9666 60.3378C61.5688 60.8789 61.1727 61.012 60.8793 61.012L60.8787 61.0122ZM62.312 53.503C62.174 53.5959 61.8233 54.0062 61.4493 55.227C61.1534 56.1933 60.9343 57.3767 60.8635 58.3925C60.7863 59.4974 60.9072 59.9566 60.9799 60.1259C61.1752 60.0191 61.4905 59.626 61.8095 58.7704C62.1638 57.8204 62.4312 56.5341 62.5073 55.4137C62.5939 54.139 62.4039 53.6294 62.3123 53.5033L62.312 53.503Z" fill="#3A3A3A"></path>
<path d="M62.3722 53.4967C56.2323 52.6231 48.5715 52.056 41.3541 51.9406C35.1821 51.8418 26.2152 52.0277 18.5447 53.474L18.3862 52.6336C24.5133 51.4783 32.4602 50.943 41.3676 51.0855C48.6194 51.2014 56.3189 51.7718 62.4925 52.6502L62.3722 53.4969V53.4967Z" fill="#3A3A3A"></path>
<path d="M20.0636 61.0019L19.9229 60.1584C33.9813 57.8093 48.531 57.8098 60.8925 60.1601L60.7329 61.0003C48.4685 58.6682 34.0253 58.6688 20.0639 61.0019H20.0636Z" fill="#3A3A3A"></path>
<path d="M24.2253 72.0601L23.4331 71.7378C24.9696 67.9609 25.7501 63.8097 25.6904 59.7327L26.5453 59.7202C26.6067 63.911 25.8043 68.1781 24.225 72.0601H24.2253Z" fill="#3A3A3A"></path>
<path d="M56.2468 74.3274C54.8099 72.4258 53.9433 69.974 53.6704 67.0405C53.4316 64.4725 53.6704 61.8857 53.9016 59.3838L54.7532 59.4624C54.5259 61.9252 54.2905 64.4722 54.522 66.9611C54.7798 69.7338 55.5896 72.0388 56.9292 73.8114L56.2468 74.3271V74.3274Z" fill="#3A3A3A"></path>
<path d="M57.582 73.4389C57.3084 67.779 59.7889 62.3539 64.301 58.9582C64.602 58.6168 65.1316 58.6267 65.5805 58.7006C67.2362 58.9731 68.8043 59.7549 70.0185 60.9129C70.645 61.5104 71.212 62.3577 70.9678 63.1882C70.7802 63.8253 70.1767 64.2336 69.6152 64.588C67.814 65.7249 66.0129 66.8619 64.2117 67.9989C63.2143 68.6285 62.1964 69.2764 61.4695 70.2051C60.7426 71.1337 60.7778 71.8079 60.4923 73.1305C60.1363 73.2749 59.0831 73.3048 57.582 73.4392V73.4389Z" fill="#CFEEFF"></path>
<path d="M60.8123 72.775C59.9219 72.8953 59.0794 72.3218 58.948 71.7077C58.7987 71.0111 59.4639 70.3854 59.5518 69.6758C59.6049 69.247 59.442 68.8265 59.3853 68.3994C59.3286 67.9723 59.4257 67.4602 59.8165 67.2564C59.9676 67.1778 60.1437 67.1562 60.2934 67.0752C60.7417 66.8317 60.7611 66.1902 61.1207 65.8314C61.5184 65.4344 62.2262 65.521 62.6605 65.8682C63.0947 66.2154 63.7472 66.8284 65.682 66.567C61.5937 69.4603 61.2164 70.6543 60.8126 72.775H60.8123Z" fill="white"></path>
<path d="M60.535 63.1081C60.54 63.359 60.3569 64.1433 61.1806 64.0091C61.7321 63.9192 62.4908 63.1737 62.992 62.6697C63.3494 62.3106 63.764 62.0428 64.359 62.3546C64.7335 62.551 65.2955 62.7587 65.9768 63.2503C65.2764 62.4744 64.2558 60.2972 64.2049 59.2529C63.1643 59.9581 61.4403 61.9786 60.5353 63.1078L60.535 63.1081Z" fill="white"></path>
<path opacity="0.3" d="M71.0228 62.882C70.9133 62.7605 70.798 62.6454 70.6804 62.5387C69.3849 61.3588 67.7115 60.5621 65.9454 60.2846C65.4661 60.2094 64.9013 60.1991 64.5801 60.5472C60.712 63.3271 58.2434 67.4412 57.5737 71.9423C57.764 66.8345 60.1887 62.0537 64.3013 58.9582C64.6023 58.6168 65.1317 58.6267 65.5806 58.7006C67.2366 58.9731 68.8048 59.7546 70.0191 60.9126C70.5684 61.4368 71.0721 62.153 71.0228 62.8817V62.882Z" fill="white"></path>
<path d="M57.9011 73.7607H57.0459C57.0459 70.4381 57.5858 67.6617 58.6969 65.273C59.7726 62.9603 61.4238 60.932 63.7453 59.0719L63.8086 59.0213C63.9461 58.8617 64.1076 58.7344 64.2885 58.6368L64.2982 58.629L64.2988 58.6312C65.4627 58.0119 67.4229 58.5997 68.9785 59.644C69.8373 60.2205 70.5326 60.9143 70.9367 61.5982C71.4401 62.4496 71.5051 63.2784 71.1254 63.9952C70.9102 64.4143 70.5155 64.7015 69.9839 64.8262C69.5878 64.9192 69.112 64.9189 68.6446 64.8257C66.4352 64.3853 64.4736 62.479 63.7633 60.1666C61.8174 61.8236 60.4107 63.6176 59.473 65.6337C58.4159 67.9068 57.9017 70.5653 57.9017 73.7607H57.9011ZM67.3548 63.4292C67.822 63.6981 68.3146 63.8884 68.8114 63.9875C69.4249 64.1097 70.1432 64.0384 70.3653 63.6035L70.3686 63.5971C70.9074 62.5846 69.8193 61.2391 68.5016 60.3547C66.9541 59.3159 65.2682 58.9483 64.5803 59.4647C64.7297 59.8587 65.4665 60.7151 68.826 61.768L69.741 62.0549L68.9162 62.544C68.7627 62.635 68.5558 62.7501 68.316 62.8831C68.0131 63.0513 67.6644 63.2453 67.3548 63.4295V63.4292ZM65.1122 61.1376C65.3523 61.5597 65.643 61.9589 65.9766 62.3202C66.1694 62.529 66.374 62.7221 66.5876 62.8972C66.9015 62.6967 67.2887 62.4765 67.6458 62.277C66.8263 61.9882 66.1312 61.6939 65.5716 61.3984C65.4076 61.3118 65.2544 61.2247 65.1122 61.1376Z" fill="#3A3A3A"></path>
<path d="M61.24 73.665H60.3848C60.3848 71.5809 61.053 69.9628 62.4874 68.573C63.7719 67.3287 65.5568 66.3627 67.6235 65.244C68.4323 64.8063 69.2687 64.3535 70.143 63.8486L70.5706 64.5892C69.6861 65.1001 68.8444 65.5558 68.0304 65.9962C63.9412 68.2095 61.2397 69.6715 61.2397 73.665H61.24Z" fill="#3A3A3A"></path>
<path d="M31.4986 56.0942C31.4986 56.0942 27.3361 61.5927 21.6241 68.9373C15.9122 76.282 19.2667 81.5511 24.1586 83.3705C25.6998 83.9384 26.0535 83.9996 26.0535 83.9996L35.2738 56.5858L31.4986 56.0945V56.0942Z" fill="#00A3FF"></path>
<path opacity="0.25" d="M22.3781 82.1236C22.3781 82.1236 16.9909 77.3862 22.3845 69.6958C28.0751 61.5818 30.4887 58.1324 30.4887 58.1324L30.0705 57.9614L22.5333 67.7651C22.5333 67.7651 18.9334 71.7622 18.6261 75.5701C18.3188 79.378 21.376 81.8542 22.3784 82.1236H22.3781Z" fill="white"></path>
<path d="M26.3333 84.4663L25.9829 84.4057C25.9428 84.3988 25.5475 84.3219 24.0152 83.7573C21.2009 82.7108 19.1875 80.703 18.4902 78.2484C18.1027 76.8846 18.1185 75.4109 18.5373 73.8681C18.9909 72.1967 19.9194 70.4511 21.2968 68.6798C26.9416 61.4215 31.1264 55.896 31.1679 55.8409L31.3134 55.6489L35.828 56.2365L26.3333 84.4661V84.4663ZM31.6838 56.5342C30.8971 57.571 27.0102 62.6852 21.9515 69.1897C20.6419 70.8738 19.7623 72.5212 19.3377 74.0859C18.9591 75.4809 18.9425 76.8052 19.2882 78.0218C19.9125 80.2191 21.7405 82.0261 24.3031 82.9791C25.0544 83.2561 25.5146 83.409 25.7854 83.4929L34.7197 56.9295L31.6841 56.5342H31.6838Z" fill="#3A3A3A"></path>
<path d="M48.7401 56.3154C48.7401 56.3154 52.9675 61.7643 58.7663 69.0407C64.5651 76.317 61.2731 81.6257 56.4034 83.5029C54.8691 84.0891 54.5159 84.1544 54.5159 84.1544L44.9712 56.8518L48.7403 56.3157L48.7401 56.3154Z" fill="#00A3FF"></path>
<path opacity="0.25" d="M58.1686 82.2348C58.1686 82.2348 63.4991 77.4338 58.0148 69.8077C52.2281 61.7618 49.7739 58.3415 49.7739 58.3415L50.1902 58.1655L57.8433 67.879C57.8433 67.879 61.4902 71.833 61.8428 75.637C62.1952 79.441 59.1676 81.9531 58.1686 82.2348Z" fill="white"></path>
<path d="M54.2414 84.6244L44.4126 56.5094L48.92 55.8682L49.0677 56.0585C49.11 56.113 53.3599 61.5887 59.0906 68.7793C60.4891 70.5343 61.4384 72.2685 61.9116 73.9344C62.3484 75.472 62.3818 76.9453 62.0106 78.3136C61.3424 80.7762 59.3531 82.8078 56.5526 83.8872C55.0258 84.4704 54.6314 84.552 54.5915 84.5594L54.2419 84.6242L54.2414 84.6244ZM45.5292 57.1888L54.778 83.6443C55.0476 83.5575 55.5065 83.3987 56.2553 83.1126C58.8052 82.1297 60.6116 80.3012 61.2099 78.0964C61.5413 76.8756 61.5086 75.5516 61.1136 74.1612C60.6705 72.6016 59.7716 70.965 58.442 69.2966C53.3068 62.8527 49.3592 57.785 48.5604 56.7575L45.5295 57.1888H45.5292Z" fill="#3A3A3A"></path>
<path d="M40.1246 91.7618C25.5965 93.8169 24.0606 85.8899 24.1632 81.5373C24.1798 80.8538 24.2368 80.2571 24.2907 79.8023C25.084 72.9959 29.5726 65.2844 30.6424 62.2287C30.6424 62.2287 33.8313 54.1772 40.1249 54.1772C46.4185 54.1772 49.6085 62.2287 49.6085 62.2287C50.6784 65.2844 55.1658 72.9959 55.9591 79.8023C56.013 80.2571 56.07 80.8535 56.0866 81.5382C56.1901 85.8908 54.6522 93.8166 40.1252 91.7615L40.1246 91.7618Z" fill="#00A3FF"></path>
<path d="M54.1754 83.0777C53.2414 90.6061 45.6635 90.8982 40.1247 90.3967C34.587 90.8979 27.0092 90.6058 26.0751 83.0777C24.8935 73.5659 33.8341 61.8664 32.7986 58.6035C33.5473 57.4557 40.1247 57.6455 40.1247 57.6455C40.1247 57.6455 46.7032 57.456 47.452 58.6035C46.4164 61.8664 55.3562 73.5659 54.1754 83.0777Z" fill="white"></path>
<path d="M47.6652 60.8658C45.513 61.5267 42.9177 61.9132 40.1246 61.9132C37.3316 61.9132 34.7371 61.5267 32.585 60.8658C32.8676 59.9128 32.9692 59.1432 32.7982 58.6035C33.547 57.4557 40.1244 57.6455 40.1244 57.6455C40.1244 57.6455 46.7029 57.456 47.4516 58.6035C47.2807 59.1432 47.3822 59.9139 47.6649 60.8658H47.6652Z" fill="#E9E8ED"></path>
<path d="M49.6078 62.2285C50.7725 64.635 52.1226 66.9839 53.2157 69.426C55.0246 73.544 56.6668 77.9151 56.5658 82.4932C56.3979 88.1407 53.0929 91.6075 47.5386 92.3619C45.2539 92.711 42.0004 92.5254 40.1834 92.1718C37.7311 92.5082 35.1903 92.6725 32.7201 92.3082C32.0656 92.2216 31.3318 92.0606 30.6987 91.8742C30.3936 91.7992 30.0056 91.6498 29.7113 91.543C26.846 90.4697 24.8252 88.2101 24.0876 85.2399C22.9068 80.2801 24.6192 75.2102 26.4934 70.6598C27.1937 69.0357 27.9903 67.3692 28.8076 65.8065C29.409 64.6646 30.0905 63.3918 30.6426 62.2291C30.4155 63.0988 30.0775 63.9331 29.7572 64.7691C29.1014 66.4005 28.385 68.089 27.7234 69.722C25.871 74.3413 23.7852 80.0198 24.9848 85.0108C25.9875 88.9391 28.9866 90.9021 32.8468 91.4601C35.2775 91.841 37.7458 91.6363 40.1831 91.3516C43.4237 91.7295 46.7871 91.8811 49.898 90.7845C55.8027 88.7208 56.2931 82.5936 55.0432 77.2684C54.3224 74.0586 53.0257 70.908 51.7658 67.8686C51.0198 66.004 50.1574 64.1658 49.6078 62.2288V62.2285Z" fill="#3A3A3A"></path>
<path d="M61.8952 49.9592C60.0008 53.9541 55.2921 57.9803 44.2499 58.9676H35.9997C24.9575 57.9803 20.2484 53.9544 18.3543 49.9592C16.6425 46.3458 17.2308 42.7581 17.5215 41.4624C17.0045 20.7003 31.1197 17.4341 40.1248 17.4341C44.547 17.4341 50.2017 18.2219 54.7505 21.4818C59.4643 24.8609 62.9914 30.8963 62.7281 41.4627C63.0185 42.7584 63.6071 46.3461 61.8952 49.9595V49.9592Z" fill="#00A3FF"></path>
<path d="M61.8954 49.9595C60.001 53.9544 55.2923 57.9805 44.2501 58.9678H35.9998C24.9576 57.9805 20.2486 53.9546 18.3545 49.9595C20.0392 51.5759 25.8093 55.7945 40.125 55.7945C54.4406 55.7945 60.2107 51.5759 61.8954 49.9595Z" fill="#00A3FF"></path>
<path opacity="0.25" d="M40.1245 18.4312C44.7677 18.4312 51.1493 19.3366 55.7012 23.5503C50.826 20.1142 44.7166 19.3233 40.1245 19.3233C35.5325 19.3233 29.4231 20.1142 24.5479 23.5503C29.0995 19.3366 35.4811 18.4312 40.1245 18.4312Z" fill="white"></path>
<path d="M45.2095 58.8282C45.2095 58.8282 41.8478 59.5856 40.1249 59.5856C38.402 59.5856 35.0403 58.8282 35.0403 58.8282C18.8205 55.7445 19.1258 46.0504 20.1429 41.97C19.8397 28.4597 29.2849 23.3126 35.3536 26.6059C38.7986 28.5369 38.6352 35.5806 37.7915 42.0112L40.1249 40.9827L42.4582 42.0112C41.6146 35.5808 41.4514 28.5369 44.8964 26.6059C50.9663 23.3126 60.4103 28.4597 60.1072 41.97C61.1242 46.0504 61.4304 55.7445 45.2098 58.8282H45.2095Z" fill="white"></path>
<path d="M57.8721 52.5977C55.6806 55.221 51.8152 57.5724 45.2102 58.8286C45.2102 58.8286 41.8484 59.5855 40.1253 59.5855C38.4021 59.5855 35.0404 58.8286 35.0404 58.8286C28.4353 57.5724 24.5707 55.2199 22.3784 52.5977C25.7562 54.2008 31.3271 55.7945 40.1253 55.7945C48.9234 55.7945 54.4943 54.2008 57.8721 52.5977Z" fill="#E9E8ED"></path>
<path d="M35.9994 58.9675C32.2866 59.1451 28.5355 58.313 25.1408 56.8045C18.7545 53.9333 15.5889 48.2957 17.0261 41.3513L17.0139 41.475C17.0034 41.0742 17.0114 40.0664 17.0031 39.6796C16.9946 39.2774 17.064 38.2989 17.0695 37.8829C17.1503 36.6898 17.2897 35.4836 17.4836 34.3032C17.5251 34.0822 17.74 33.0238 17.7793 32.8263C17.8279 32.6343 17.9563 32.1468 18.0066 31.9499C19.6933 25.3408 24.131 20.4529 30.655 18.3685C33.7125 17.3759 36.9229 16.9933 40.125 17.0193C40.125 17.0193 40.125 17.8481 40.125 17.8478C40.125 17.8478 40.1245 17.0185 40.125 17.0193C43.3272 16.9933 46.5376 17.3756 49.5951 18.3682C56.3846 20.5497 60.7822 25.6382 62.3953 32.5339C63.1059 35.4468 63.3025 38.4884 63.2373 41.4747C64.0134 44.7719 63.4881 49.1204 61.0665 52.2436C58.9542 55.0368 55.7606 56.7572 52.4888 57.812C49.831 58.664 47.0333 59.1351 44.2502 58.9672C45.4439 58.656 46.6391 58.4156 47.8368 58.1548C49.2878 57.8142 50.8077 57.4717 52.2258 57.0045C55.3103 55.976 58.3432 54.3245 60.3062 51.6735C62.4589 48.802 63.0165 44.9811 62.2191 41.5168C62.2269 39.9366 62.2194 38.3529 62.0507 36.786C61.6344 32.221 60.1665 27.5519 56.9984 24.1438C52.7411 19.5016 46.251 17.8913 40.1253 17.8481C40.1245 17.8487 40.1253 17.0193 40.125 17.0193C40.1253 17.0193 40.125 17.8481 40.125 17.8481C35.4866 17.9087 30.7493 18.7546 26.7868 21.2322C21.2544 24.6215 18.7584 30.5186 18.1986 36.786C18.0299 38.3526 18.0205 39.9364 18.0293 41.5165C16.9157 46.2497 18.4553 51.2704 22.4407 54.1756C24.3473 55.6161 26.5985 56.6034 28.8884 57.2734C31.2284 57.968 33.6253 58.3935 35.9996 58.9672L35.9994 58.9675Z" fill="#3A3A3A"></path>
<path d="M54.6026 39.7351C54.6062 36.802 52.5504 34.4217 50.011 34.4186C47.4715 34.4155 45.41 36.7907 45.4064 39.7238C45.4028 42.6569 47.4585 45.0372 49.998 45.0403C52.5375 45.0434 54.599 42.6682 54.6026 39.7351Z" fill="#3A3A3A"></path>
<path d="M50.1842 40.8715C50.1855 39.8231 49.5153 38.9724 48.6874 38.9714C47.8594 38.9704 47.1872 39.8195 47.1859 40.8678C47.1846 41.9162 47.8548 42.7669 48.6827 42.7679C49.5107 42.769 50.1829 41.9199 50.1842 40.8715Z" fill="white"></path>
<path opacity="0.2" d="M52.8244 37.858C52.8252 37.1484 52.4542 36.5728 51.9956 36.5722C51.537 36.5717 51.1645 37.1464 51.1637 37.8559C51.1628 38.5654 51.5339 39.1411 51.9924 39.1416C52.451 39.1422 52.8235 38.5675 52.8244 37.858Z" fill="white"></path>
<path d="M30.2561 45.037C32.7956 45.0339 34.8513 42.6536 34.8477 39.7205C34.8441 36.7874 32.7826 34.4122 30.2431 34.4153C27.7037 34.4184 25.6479 36.7986 25.6515 39.7317C25.6551 42.6648 27.7166 45.0401 30.2561 45.037Z" fill="#3A3A3A"></path>
<path d="M31.5716 42.7649C32.3996 42.7639 33.0698 41.9132 33.0685 40.8648C33.0672 39.8164 32.395 38.9674 31.567 38.9684C30.7391 38.9694 30.0689 39.8201 30.0702 40.8685C30.0715 41.9169 30.7437 42.7659 31.5716 42.7649Z" fill="white"></path>
<path opacity="0.2" d="M28.2622 39.1387C28.7208 39.1381 29.0918 38.5625 29.091 37.853C29.0901 37.1435 28.7176 36.5687 28.259 36.5693C27.8005 36.5699 27.4294 37.1455 27.4303 37.855C27.4311 38.5645 27.8036 39.1392 28.2622 39.1387Z" fill="white"></path>
<path d="M56.3307 46.8698C57.6089 46.8698 58.6452 46.2348 58.6452 45.4515C58.6452 44.6682 57.6089 44.0332 56.3307 44.0332C55.0524 44.0332 54.0161 44.6682 54.0161 45.4515C54.0161 46.2348 55.0524 46.8698 56.3307 46.8698Z" fill="#FFA1A8"></path>
<path d="M23.9181 46.8698C25.1963 46.8698 26.2326 46.2348 26.2326 45.4515C26.2326 44.6682 25.1963 44.0332 23.9181 44.0332C22.6398 44.0332 21.6035 44.6682 21.6035 45.4515C21.6035 46.2348 22.6398 46.8698 23.9181 46.8698Z" fill="#FFA1A8"></path>
<path d="M43.6989 18.2707C45.3449 17.5904 47.1524 14.0354 44.1987 12.9103C42.4854 12.4713 41.2634 13.6019 40.1017 15.3217C39.9961 15.478 37.9745 10.8892 35.5836 13.0514C33.8336 14.8177 35.1587 17.4839 36.449 18.2466C36.449 18.2466 37.5961 17.895 39.5076 17.895C41.4192 17.895 43.6986 18.2704 43.6986 18.2704L43.6989 18.2707Z" fill="#00A3FF"></path>
<path d="M43.6988 18.2704C44.6693 17.4201 45.8272 15.3835 45.1185 14.1782C44.9003 13.7978 44.5025 13.5206 44.0315 13.3488L44.0821 13.3648C43.7851 13.2957 43.4902 13.268 43.2042 13.3065C42.9185 13.3447 42.6419 13.4453 42.3786 13.5961C41.6312 14.0177 41.0009 14.8274 40.4883 15.5605C40.464 15.6086 40.3392 15.7376 40.2203 15.7616C39.9172 15.8432 39.7169 15.633 39.5891 15.4147C38.8899 14.3032 37.6239 12.1684 36.1284 13.1516C35.0519 13.8882 35.0314 15.3262 35.4067 16.4955C35.625 17.1412 35.9525 17.7504 36.4492 18.2464C35.032 17.7241 34.0636 15.9688 34.3501 14.4836C34.6043 13.2749 35.5672 12.0934 36.8849 12.0483C38.5721 12.0862 39.5886 13.7889 40.3998 14.9978C40.2967 14.8944 40.1517 14.8435 39.9739 14.8883C39.8887 14.9137 39.8295 14.9536 39.7841 14.9978C39.7213 15.0651 39.7197 15.08 39.7274 15.0656C39.7335 15.0576 39.7498 15.0316 39.7559 15.023C40.5506 13.8434 41.5679 12.572 43.0811 12.367C43.5118 12.3111 43.9444 12.3535 44.3457 12.4633C45.3141 12.8052 46.1439 13.6603 46.1972 14.7292C46.3106 16.2347 45.2383 18.0212 43.6993 18.2704H43.6988Z" fill="#3A3A3A"></path>
<path d="M43.6436 42.7642C43.0312 44.4024 42.8042 47.2841 40.1248 47.2841C37.4454 47.2841 37.2181 44.4024 36.606 42.7642H43.6439H43.6436Z" fill="#FC8230"></path>
<path d="M40.1244 47.5949C37.707 47.5949 37.0816 45.4366 36.6252 43.8609C36.5215 43.5029 36.4236 43.1651 36.3146 42.8733C36.279 42.7778 36.2922 42.671 36.3503 42.5872C36.4084 42.5034 36.5038 42.4536 36.6056 42.4536H43.6435C43.7453 42.4536 43.8408 42.5034 43.8988 42.5872C43.9569 42.6708 43.9702 42.7778 43.9345 42.8733C43.8253 43.1651 43.7276 43.5029 43.6239 43.8609C43.1675 45.4369 42.5422 47.5952 40.1244 47.5952V47.5949ZM37.0396 43.0752C37.1013 43.2708 37.1607 43.4761 37.2221 43.688C37.6901 45.3032 38.1739 46.9736 40.1247 46.9736C42.0755 46.9736 42.5593 45.3032 43.0273 43.688C43.0887 43.4761 43.1479 43.2711 43.2098 43.0752H37.0399H37.0396Z" fill="#3A3A3A"></path>
<path d="M40.1247 46.5286C38.7113 46.5286 38.0563 45.4503 37.5205 43.601C37.4995 43.5285 37.4788 43.4566 37.458 43.3857H42.7913C42.7706 43.4568 42.7498 43.5285 42.7288 43.6012C42.193 45.4506 41.5381 46.5289 40.1247 46.5289V46.5286Z" fill="#3A3A3A"></path>
<path d="M40.1251 44.8168C41.549 43.9911 41.3745 45.818 40.1251 45.818C38.8758 45.818 38.7012 43.9911 40.1251 44.8168Z" fill="#FF7B7B"></path>
<path d="M40.1251 40.8057C41.3524 40.8057 42.355 41.6903 42.355 41.6903C43.7371 41.7285 43.9695 42.4599 43.7308 42.9781C43.2874 43.9408 40.8611 43.9908 40.1251 43.9908C39.3891 43.9908 36.9628 43.9405 36.5194 42.9781C36.2807 42.4599 36.5131 41.7285 37.8952 41.6903C37.8952 41.6903 38.8979 40.8057 40.1251 40.8057Z" fill="#FCB137"></path>
<path opacity="0.3" d="M40.1255 40.8062C41.3538 40.8062 42.3562 41.6908 42.3562 41.6908C43.597 41.7251 43.9107 42.3185 43.7884 42.8148C43.5212 42.2566 43.0723 42.1052 42.1485 42.0795C42.1485 42.0795 41.0969 41.1948 40.1252 41.1948C39.1535 41.1948 38.1019 42.0795 38.1019 42.0795C37.1781 42.1055 36.7295 42.2568 36.462 42.8148C36.3397 42.3185 36.6537 41.7251 37.8942 41.6908C37.8942 41.6908 38.8966 40.8062 40.1249 40.8062H40.1255Z" fill="white"></path>
<path d="M43.7306 42.978C43.2872 43.9402 40.861 43.9911 40.1255 43.9911C39.39 43.9911 36.9626 43.9405 36.5193 42.978C36.3917 42.7014 36.3992 42.3647 36.6434 42.105C36.6393 42.2292 36.6683 42.3537 36.7201 42.4665C37.1385 43.3758 39.4293 43.4237 40.1252 43.4237C40.8211 43.4237 43.111 43.3761 43.5295 42.4665C43.5813 42.3537 43.6103 42.2295 43.6061 42.105C43.8507 42.365 43.8579 42.7017 43.7303 42.978H43.7306Z" fill="#FC8230"></path>
<path d="M40.1249 44.3016C38.602 44.3016 36.6913 44.0947 36.2371 43.1079C36.0742 42.7541 36.091 42.3738 36.2836 42.0639C36.4611 41.7779 36.8641 41.4337 37.7783 41.3842C38.064 41.1582 38.9983 40.4951 40.1252 40.4951C41.252 40.4951 42.1863 41.1582 42.4721 41.3842C43.3862 41.434 43.7892 41.7779 43.9668 42.0639C44.1593 42.3738 44.1762 42.7544 44.0133 43.1079C43.5591 44.0944 41.6481 44.3016 40.1252 44.3016H40.1249ZM40.1249 41.1167C39.0346 41.1167 38.1094 41.9159 38.1002 41.9239C38.0457 41.9715 37.976 41.9992 37.9038 42.0011C37.3465 42.0166 36.9584 42.1555 36.8116 42.392C36.6973 42.5757 36.7668 42.7721 36.8016 42.8482C37.0381 43.3613 38.3115 43.6803 40.1252 43.6803C41.9388 43.6803 43.2125 43.3613 43.4487 42.8482C43.4836 42.7721 43.553 42.5754 43.4388 42.392C43.2919 42.1555 42.9038 42.0166 42.3465 42.0011C42.2738 41.9992 42.2041 41.9715 42.1496 41.9237C42.1407 41.9159 41.2158 41.1167 40.1252 41.1167H40.1249Z" fill="#3A3A3A"></path>
<path d="M53.8444 61.1607C53.8615 61.2622 47.8157 66.8624 55.554 79.4283C55.6887 80.5277 55.8486 82.2525 55.5966 83.3668C53.086 80.1213 50.5936 76.4506 48.9279 72.7005C45.9083 65.9019 47.1588 59.8076 49.1987 58.9086C50.2066 58.4643 53.5473 59.4065 53.8444 61.1609V61.1607Z" fill="#FF8502"></path>
<path opacity="0.3" d="M48.9282 72.7001C48.9393 72.725 48.9504 72.7502 48.9617 72.7751C46.4926 66.3057 48.0005 60.8604 50.3107 59.9799C50.9123 59.7505 52.1713 59.8593 53.3715 60.2402C52.3458 59.0941 50.0125 58.5494 49.199 58.9082C47.1591 59.8075 45.9089 65.9015 48.9285 72.7001H48.9282Z" fill="white"></path>
<path d="M55.8136 84.3458L55.2588 83.6284C52.1861 79.6565 49.9877 76.1388 48.5376 72.874C47.5172 70.5765 46.8946 68.1501 46.7375 65.8565C46.6006 63.8623 46.8202 62.0011 47.3554 60.616C47.7706 59.5418 48.3484 58.8162 49.0266 58.5171C49.7836 58.1835 51.3381 58.4397 52.5653 59.1008C53.5475 59.6297 54.1355 60.3175 54.2664 61.0896C54.3004 61.2912 54.2005 61.4104 54.0949 61.5369C52.7625 63.1308 52.2909 65.0169 52.1302 66.3188C51.9269 67.9626 52.0705 69.7618 52.5565 71.6664C53.1572 74.0212 54.2885 76.5574 55.9185 79.2042L55.9674 79.2839L55.9788 79.3766C56.2053 81.2281 56.2169 82.5642 56.0139 83.4611L55.8136 84.3458ZM49.8696 59.2264C49.6334 59.2264 49.4661 59.2579 49.3715 59.2994C48.9123 59.5019 48.4795 60.0787 48.1531 60.9238C47.2973 63.1383 47.0893 67.5058 49.3192 72.5265C50.6388 75.4976 52.598 78.6922 55.2956 82.2677C55.3221 81.5562 55.2707 80.6546 55.1412 79.5721C53.4922 76.8805 52.344 74.292 51.7278 71.8775C51.2153 69.8691 51.0651 67.9634 51.2814 66.2134C51.454 64.8169 51.9588 62.7978 53.3793 61.06C53.2314 60.6243 52.8057 60.2016 52.1598 59.8535C51.6653 59.5871 51.0806 59.3863 50.513 59.2875C50.261 59.2438 50.0458 59.2261 49.8694 59.2261L49.8696 59.2264Z" fill="#3A3A3A"></path>
<path d="M26.1214 61.1607C26.1042 61.2622 32.15 66.8624 24.4118 79.4283C24.2771 80.5277 24.1172 82.2525 24.3692 83.3668C26.8798 80.1213 29.3722 76.4506 31.0379 72.7005C34.0574 65.9019 32.8069 59.8076 30.7671 58.9086C29.7592 58.4643 26.4184 59.4065 26.1214 61.1609V61.1607Z" fill="#FF8502"></path>
<path opacity="0.3" d="M31.0379 72.7001C31.0269 72.725 31.0158 72.7502 31.0045 72.7751C33.4736 66.3057 31.9656 60.8604 29.6555 59.9799C29.0539 59.7505 27.7949 59.8593 26.5947 60.2402C27.6203 59.0941 29.9537 58.5494 30.7672 58.9082C32.807 59.8075 34.0572 65.9015 31.0377 72.7001H31.0379Z" fill="white"></path>
<path d="M24.1524 84.3458L23.9521 83.4611C23.7491 82.564 23.7607 81.2281 23.9872 79.3766L23.9986 79.2839L24.0475 79.2042C25.6775 76.5574 26.8088 74.0212 27.4095 71.6664C27.8955 69.7618 28.0391 67.9626 27.8358 66.3188C27.6748 65.0172 27.2035 63.1308 25.8711 61.5369C25.7655 61.4104 25.6656 61.2909 25.6996 61.0896C25.8305 60.3175 26.4185 59.6297 27.4007 59.1008C28.6279 58.4397 30.1824 58.1835 30.9394 58.5171C31.6176 58.8162 32.1957 59.5418 32.6106 60.616C33.1458 62.0011 33.3654 63.8623 33.2285 65.8565C33.0711 68.1501 32.4488 70.5768 31.4284 72.874C29.9785 76.1385 27.7799 79.6565 24.7072 83.6284L24.1524 84.3458ZM24.825 79.5724C24.6956 80.6549 24.6441 81.5564 24.6707 82.2679C27.3683 78.6924 29.3274 75.4978 30.6471 72.5268C32.877 67.5061 32.669 63.1386 31.8132 60.9241C31.4865 60.079 31.0539 59.5019 30.5948 59.2997C30.2004 59.126 28.9178 59.2552 27.8064 59.8538C27.1606 60.2018 26.7349 60.6245 26.5869 61.0602C28.0075 62.7981 28.5123 64.8175 28.6849 66.214C28.9012 67.964 28.751 69.8697 28.2385 71.8781C27.6225 74.2925 26.4741 76.881 24.8253 79.5727L24.825 79.5724ZM26.543 61.2315C26.543 61.2315 26.543 61.232 26.543 61.2323C26.543 61.2323 26.543 61.2317 26.543 61.2315Z" fill="#3A3A3A"></path>
<path d="M15.0176 31.1388C15.0176 31.1388 11.179 40.7222 13.394 44.5788C15.6468 47.4782 20.4012 47.4445 21.7173 45.3202C23.3862 43.3912 21.5903 36.7348 23.5101 31.8876C24.9125 28.3475 29.1673 24.7106 39.6632 24.7106C47.1894 24.7106 50.9331 25.7737 54.2688 28.3414C58.8132 31.8395 57.7699 41.2858 57.9074 43.3661C58.0449 45.4464 60.8642 47.8669 64.4749 46.1097C68.0855 44.3525 67.7743 41.753 67.3957 40.2132C67.017 38.6735 65.7798 31.9875 65.6313 31.1097C65.483 30.2322 66.829 24.7302 63.2338 19.062C59.6386 13.394 52.825 11.3463 42.4599 10.7546C32.0948 10.1626 21.5834 12.5475 17.4226 18.1305C13.2618 23.7136 15.0176 31.1388 15.0176 31.1388Z" fill="#FF8502"></path>
<g opacity="0.6">
<path d="M25.4489 27.2102C23.5603 26.9404 23.4814 26.6201 20.3764 28.2838C18.6242 29.2224 16.4286 30.6111 14.8257 31.6427C14.6683 32.0682 14.4293 32.7387 14.168 33.5637C15.3061 33.7479 16.6579 33.8447 17.2027 33.5653C18.3758 32.9639 19.9148 31.8596 20.6228 32.1567C21.3309 32.4532 21.3345 33.5902 21.0242 35.8315C20.7138 38.0731 20.6502 42.1916 17.7645 43.0453C15.5299 43.7071 13.8272 42.4224 12.7728 39.9219C12.6074 41.7158 12.7228 43.4097 13.3938 44.5782C15.6461 47.4779 20.4007 47.4436 21.7168 45.3198C23.3855 43.3909 21.5898 36.7342 23.5094 31.8872C24.122 30.3414 25.2785 28.7765 27.2619 27.504C26.8169 27.424 26.5124 27.3626 25.4483 27.2102H25.4489Z" fill="#E36A00"></path>
</g>
<g opacity="0.6">
<path d="M67.5468 39.9225C66.4924 42.4232 64.7897 43.7077 62.5551 43.046C59.6697 42.192 59.6058 38.0737 59.2954 35.8321C58.9851 33.5911 58.9887 32.4538 59.6968 32.1573C60.4049 31.8602 61.9438 32.9645 63.1169 33.5659C63.6618 33.8451 65.0135 33.7482 66.1517 33.5643C65.8903 32.7393 65.6513 32.0688 65.4939 31.6433C63.891 30.6115 61.6954 29.223 59.9432 28.2844C56.8384 26.6207 56.7593 26.9408 54.8708 27.2108C53.8064 27.3632 53.5019 27.4249 53.0571 27.5046C55.0406 28.7771 56.1973 30.342 56.8097 31.8879C58.7295 36.7348 56.9336 43.3915 58.6023 45.3204C59.9183 47.4442 64.673 47.4788 66.9253 44.5788C67.5963 43.4106 67.7116 41.7164 67.5462 39.9225H67.5468Z" fill="#E36A00"></path>
</g>
<g opacity="0.3">
<path d="M62.6583 18.2235C59.0631 13.2164 52.8248 11.2672 42.4597 10.7444C32.0944 10.2212 22.1182 12.3458 17.9576 17.2774C15.3493 20.3691 14.5309 24.0818 14.683 26.4357C14.7834 24.2007 15.4013 21.3943 17.4401 18.9781C21.6009 14.0468 32.1123 11.9397 42.4772 12.4625C52.8425 12.9857 59.6559 14.7943 63.2508 19.8011C65.0514 22.3091 65.6129 24.78 65.7426 26.7195C65.83 24.6779 65.0495 21.5536 62.6583 18.2238V18.2235Z" fill="white"></path>
</g>
<path d="M18.2655 47.288C16.5963 47.288 14.4427 46.6553 13.0418 44.8522L13.0227 44.8276L13.0072 44.8008C10.8276 41.0056 14.0807 32.3148 14.5531 31.1015C14.4519 30.6152 14.1437 28.9285 14.214 26.7141C14.2621 25.1948 14.4804 23.7422 14.8623 22.3966C15.3422 20.7061 16.0832 19.1813 17.0648 17.8639C19.0895 15.1474 22.6966 13.0148 27.4963 11.6969C31.9216 10.4816 37.1047 10.002 42.4852 10.309C48.1084 10.6302 52.2573 11.3539 55.5421 12.5868C59.1744 13.9504 61.8134 15.99 63.6101 18.823C66.6098 23.5527 66.2577 28.204 66.1075 30.1903C66.0801 30.5513 66.0519 30.9245 66.0707 31.0354C66.2179 31.906 67.4545 38.5856 67.8285 40.1066C68.016 40.869 68.2229 42.0203 67.8572 43.2107C67.4382 44.5748 66.3658 45.6849 64.6698 46.5104C62.2573 47.6844 60.4448 47.0164 59.579 46.5137C58.3723 45.813 57.5414 44.5889 57.4625 43.3949C57.439 43.04 57.4479 42.5042 57.4589 41.8258C57.514 38.4708 57.6282 31.4896 53.9968 28.6942C52.2814 27.3738 50.5637 26.5412 48.427 25.9945C46.1905 25.4225 43.4057 25.1558 39.6634 25.1558C34.9464 25.1558 31.1518 25.8991 28.3856 27.3647C26.1983 28.5238 24.6975 30.1004 23.9249 32.0509C22.9627 34.4806 22.9643 37.3922 22.9657 39.961C22.9671 42.5055 22.9685 44.5203 22.0778 45.5837C21.453 46.5632 20.1577 47.1959 18.6038 47.2783C18.494 47.2841 18.3812 47.2872 18.2661 47.2872L18.2655 47.288ZM13.7654 44.3297C15.0532 45.966 17.082 46.4667 18.5562 46.3884C19.8344 46.3206 20.8744 45.8335 21.3382 45.0849L21.357 45.0547L21.3803 45.0279C22.0765 44.2232 22.0754 42.1534 22.074 39.9621C22.0723 37.3134 22.0706 34.3113 23.0957 31.7231C23.9487 29.5698 25.5878 27.8383 27.9679 26.5771C30.8641 25.0424 34.799 24.2642 39.6631 24.2642C43.4821 24.2642 46.3371 24.5394 48.6478 25.1306C50.9073 25.7085 52.7245 26.5899 54.5406 27.9874C58.5269 31.0561 58.4077 38.34 58.3504 41.8402C58.3396 42.4981 58.331 43.0176 58.3521 43.336C58.4118 44.242 59.0693 45.1864 60.0266 45.7422C60.7391 46.1557 62.2388 46.7013 64.2795 45.7081C67.4523 44.164 67.3801 42.017 66.9624 40.319C66.5843 38.7815 65.3394 32.0587 65.1914 31.1834C65.1546 30.9651 65.1784 30.6478 65.2182 30.1222C65.291 29.1598 65.413 27.5487 65.1582 25.6463C64.8518 23.3593 64.0776 21.2242 62.8572 19.3C61.1681 16.6368 58.6729 14.7139 55.229 13.4212C52.0308 12.2206 47.9654 11.5143 42.4346 11.1987C37.1497 10.8969 32.0657 11.366 27.7328 12.5559C23.1264 13.8206 19.685 15.8401 17.7801 18.3959C15.6999 21.1872 15.1776 24.4747 15.1055 26.7412C15.0272 29.2077 15.4473 31.0169 15.4515 31.0348L15.4838 31.172L15.4313 31.3032C15.4219 31.327 14.4732 33.7102 13.8063 36.5247C12.9472 40.1505 12.9331 42.8477 13.7651 44.3286L13.7654 44.3297Z" fill="#3A3A3A"></path>
<path d="M39.1732 17.5977C39.7883 17.4093 40.445 17.3584 41.0836 17.4367C41.1127 17.4544 41.142 17.4721 41.1625 17.4555C40.9688 18.959 41.0103 20.4927 41.2844 21.9835C40.5061 21.9625 39.728 21.9415 38.9497 21.9204C39.5856 20.5663 39.7112 18.9795 39.1732 17.5977Z" fill="#FF6D3E"></path>
<path d="M41.0601 20.0473C40.5451 20.1784 39.9897 20.1616 39.4833 20C39.4169 20.6603 39.2346 21.3137 38.9497 21.9201C39.728 21.9412 40.5061 21.9622 41.2847 21.9835C41.1669 21.3442 41.0922 20.6971 41.0604 20.0473H41.0601Z" fill="#F54E22"></path>
<path d="M41.4748 22.4256C41.4051 22.422 41.323 22.415 41.2278 22.4068C40.7997 22.3705 40.0827 22.3097 39.069 22.4233L38.9697 21.537C40.0706 21.4136 40.8724 21.4817 41.3031 21.5182C41.3905 21.5257 41.466 21.532 41.5213 21.5348L41.4746 22.4253L41.4748 22.4256Z" fill="#3A3A3A"></path>
<path d="M39.4904 18.0353L39.3955 17.1487C40.0502 17.0784 40.8509 17.0826 41.2296 17.1025L41.1829 17.993C40.846 17.9753 40.0887 17.9711 39.4904 18.0353Z" fill="#3A3A3A"></path>
<path d="M18.7296 26.0835C18.5413 26.2453 18.1524 26.5599 17.2512 26.9131C16.685 27.1353 15.5939 27.5378 15.0495 27.8089C14.5052 28.08 14.2242 28.1823 14.0173 28.7544C13.8104 29.3265 13.9849 30.3321 14.5165 30.6275C13.2461 32.481 14.5262 33.1903 15.104 33.1623C16.2616 33.1064 17.6332 32.3996 18.6245 31.7996C19.6158 31.1996 20.3596 30.6474 21.2386 29.8922C20.2636 28.8247 18.7642 26.1261 18.7296 26.0835Z" fill="#FF6D3E"></path>
<path d="M18.73 26.0835C18.6111 26.1856 18.4122 26.3482 18.0554 26.5433C18.1793 26.883 18.2731 27.2313 18.3121 27.5917C18.4033 28.4288 18.1425 29.3566 17.453 29.8397C16.8757 30.2435 16.1248 30.2676 15.4441 30.4519C15.0308 30.5633 14.6278 30.7478 14.2843 31.0026C13.423 32.5775 14.5664 33.1889 15.1039 33.1626C16.2611 33.107 17.633 32.3996 18.6246 31.7999C19.6157 31.1996 20.36 30.6477 21.2387 29.8922C20.2637 28.8247 18.7643 26.1261 18.73 26.0838V26.0835Z" fill="#F54E22"></path>
<path d="M15.0711 33.609C14.6142 33.609 14.0192 33.3404 13.7208 32.8057C13.492 32.3957 13.3623 31.7116 13.9373 30.7102C13.4876 30.1649 13.3684 29.2368 13.5977 28.6028C13.851 27.9029 14.243 27.7095 14.7395 27.4647C14.7751 27.447 14.8122 27.4287 14.8507 27.4096C15.2982 27.1867 16.0585 26.8945 16.6693 26.66C16.8258 26.5999 16.9688 26.5449 17.0886 26.4978C17.9615 26.1554 18.3086 25.8572 18.4392 25.7448L18.7871 25.4458L19.0759 25.8024C19.103 25.8356 19.1072 25.8431 19.2137 26.0276C20.2426 27.8085 21.0345 29.0075 21.5677 29.5912L21.8778 29.9306L21.529 30.2302C20.5997 31.0286 19.8249 31.5938 18.8552 32.1808C17.3702 33.0796 16.1152 33.5598 15.1253 33.6074C15.1076 33.6082 15.0894 33.6088 15.0711 33.6088V33.609ZM18.596 26.7396C18.3269 26.915 17.9521 27.1172 17.4141 27.3283C17.293 27.3759 17.1478 27.4315 16.989 27.4926C16.4272 27.7084 15.6578 28.0041 15.2481 28.2083C15.2086 28.2279 15.1707 28.2467 15.1336 28.265C14.6872 28.4852 14.5671 28.5441 14.436 28.9065C14.2817 29.3334 14.4479 30.08 14.7325 30.238L15.1607 30.4759L14.8838 30.88C14.4513 31.511 14.3149 32.0408 14.4994 32.3714C14.6429 32.6286 14.9497 32.7235 15.0822 32.7172C15.9227 32.6765 17.0366 32.2397 18.3933 31.4184C19.2106 30.9237 19.8598 30.4629 20.6105 29.8393C20.091 29.1837 19.4156 28.1447 18.5957 26.7396H18.596Z" fill="#3A3A3A"></path>
<path d="M14.3145 30.2558C15.6252 30.2807 16.9899 29.9189 18.1776 29.1836C17.1725 30.1535 15.8531 30.8553 14.3988 31.1436L14.3145 30.2558Z" fill="#3A3A3A"></path>
<path d="M26.0924 26.4011C24.1662 28.3276 22.5196 29.908 21.6038 29.9924C20.7024 30.0754 19.0273 27.0891 18.6766 26.1571C18.2385 24.9936 20.6598 23.2713 22.3172 21.9805C23.3259 22.9894 26.0927 26.4011 26.0927 26.4011H26.0924Z" fill="#FF6D3E"></path>
<path d="M23.6546 23.4707C23.0796 23.0715 22.4755 22.6222 21.9787 22.2427C21.4521 22.6485 20.8779 23.0878 20.3559 23.5332C20.1499 25.0787 20.5252 26.2885 22.0528 27.2597C23.0552 27.9071 22.1117 28.3536 21.8009 28.4678C21.5605 28.5566 20.9462 28.6626 19.8672 28.3555C20.4588 29.251 21.1356 30.0361 21.6036 29.9929C22.5194 29.9082 24.166 28.3278 26.0925 26.4016C26.0925 26.4016 24.7964 24.8029 23.6546 23.4712V23.4707Z" fill="#F54E22"></path>
<path d="M21.566 30.4397C20.9995 30.4397 20.3606 29.8848 19.5643 28.7046C18.9693 27.8227 18.4479 26.8147 18.2593 26.3139C17.7432 24.9429 19.79 23.3658 21.5959 21.9741C21.7491 21.856 21.899 21.7406 22.0431 21.6283L22.3537 21.3862L22.6323 21.6648C23.6457 22.6784 26.3251 25.9798 26.4388 26.1197L26.6918 26.4318L26.4078 26.7159C24.2918 28.8322 22.7116 30.3376 21.6448 30.4358C21.6188 30.4383 21.5925 30.4394 21.566 30.4394V30.4397ZM22.2727 22.5783C22.2287 22.612 22.1845 22.6463 22.1399 22.6806C21.3541 23.2862 20.4635 23.9725 19.8395 24.6184C19.2523 25.2265 18.9873 25.717 19.0938 25.9994C19.2611 26.4437 19.7466 27.3712 20.2693 28.1547C21.0228 29.2839 21.4614 29.5431 21.5668 29.5475C22.3352 29.4764 24.1566 27.7024 25.4922 26.3698C24.8569 25.5925 23.1852 23.5606 22.2727 22.578V22.5783Z" fill="#3A3A3A"></path>
<path d="M39.1802 17.7593C39.168 17.6885 39.1542 17.618 39.1376 17.5477C39.1157 17.4561 39.09 17.366 39.0607 17.2774C39.0607 17.2774 39.0607 17.2774 39.0607 17.2772C38.1457 14.5158 33.6873 13.2142 28.8848 14.3653C24.735 15.3601 21.6449 17.8708 21.1625 20.3904H21.162C19.7262 27.2764 26.4577 28.0305 31.4408 27.0391C36.1755 26.0971 40.3076 22.8918 39.1802 17.7591V17.7593Z" fill="#989899"></path>
<path d="M27.9793 27.8408C27.443 27.8408 26.889 27.8131 26.3305 27.747C24.4088 27.5196 22.9287 26.8938 21.9316 25.8874C20.6319 24.5754 20.2261 22.6956 20.7253 20.3L21.5983 20.482C21.1637 22.5662 21.489 24.1737 22.565 25.2598C23.7884 26.4947 25.8559 26.9445 27.9793 26.9447C29.1294 26.9447 30.2955 26.8128 31.3538 26.6023C34.3946 25.9973 36.8323 24.5234 38.0418 22.5584C38.9665 21.0563 39.1645 19.3198 38.631 17.3967L39.4901 17.1582C40.0928 19.3301 39.861 21.3041 38.8011 23.0259C37.4621 25.2014 34.8109 26.8236 31.5277 27.4767C30.6122 27.6587 29.3543 27.8405 27.9793 27.8405V27.8408Z" fill="#3A3A3A"></path>
<path d="M27.9893 25.899C26.7756 25.899 25.6217 25.7386 24.5883 25.4177C22.4956 24.7682 21.1342 23.538 20.7545 21.9545C20.375 20.3708 21.0311 18.657 22.6021 17.1294C24.1123 15.6608 26.3068 14.5252 28.7807 13.9321C31.2548 13.339 33.7254 13.3564 35.7373 13.9807C37.83 14.6303 39.1917 15.8602 39.5712 17.4439C39.9507 19.0277 39.2946 20.7414 37.7235 22.269C36.2133 23.7377 34.0188 24.8733 31.545 25.4664C30.3415 25.7549 29.1389 25.8988 27.9893 25.899ZM32.3377 14.3904C31.2587 14.3904 30.126 14.5265 28.9887 14.7993C26.6683 15.3556 24.621 16.4102 23.2239 17.7687C21.8874 19.0684 21.3184 20.4811 21.6219 21.7467C21.925 23.0123 23.0726 24.0135 24.8528 24.5662C26.714 25.1438 29.0166 25.1557 31.3372 24.5994C33.6576 24.0431 35.7049 22.9886 37.102 21.63C38.4385 20.3304 39.0075 18.9176 38.7041 17.652C38.4009 16.3864 37.2533 15.3852 35.4732 14.8325C34.5242 14.5379 33.4601 14.3904 32.3377 14.3904Z" fill="#3A3A3A"></path>
<path d="M31.0155 23.2555C34.3759 22.4499 36.7184 20.2048 36.2477 18.2409C35.7771 16.2771 32.6714 15.3382 29.311 16.1438C25.9507 16.9494 23.6081 19.1945 24.0788 21.1584C24.5495 23.1222 27.6552 24.0611 31.0155 23.2555Z" fill="#80CAE8"></path>
<path opacity="0.7" d="M25.9658 19.3288C25.6151 20.0138 25.7443 20.5723 26.256 20.9336C26.3268 20.9837 26.0394 20.2791 26.9193 19.3098C27.4932 18.6776 27.9543 18.3908 27.959 18.3075C27.9637 18.2242 26.6841 17.9257 25.9658 19.3286V19.3288Z" fill="white"></path>
<path opacity="0.7" d="M34.759 19.5144C35.2552 18.1946 34.2564 17.2897 33.2731 17.077C31.6725 16.7304 30.6286 16.9088 29.4741 17.6374C31.8111 18.0372 32.3952 18.0361 33.3019 18.326C34.1079 18.5838 34.4852 18.7409 34.7593 19.5144H34.759Z" fill="white"></path>
<path d="M28.6418 23.9914C27.8189 23.9914 27.0362 23.8852 26.3342 23.673C24.866 23.229 23.9109 22.3731 23.6451 21.263C23.379 20.1528 23.8423 18.9569 24.9498 17.8955C25.9942 16.8946 27.5064 16.1186 29.2071 15.7112C30.9082 15.3034 32.6073 15.3095 33.9919 15.728C35.4601 16.172 36.4152 17.0279 36.681 18.1381C36.9471 19.2482 36.4838 20.4441 35.3763 21.5056C34.3319 22.5064 32.8197 23.2824 31.119 23.6899C30.2803 23.891 29.442 23.9914 28.6418 23.9914ZM31.6851 16.3007C30.9555 16.3007 30.1871 16.3933 29.4146 16.5784C27.8651 16.9499 26.4985 17.6462 25.5663 18.5395C24.6973 19.3724 24.3228 20.2657 24.512 21.0552C24.7011 21.8444 25.4399 22.471 26.5919 22.8193C27.8275 23.193 29.3615 23.1941 30.911 22.8226C32.4604 22.4511 33.8271 21.7548 34.7592 20.8616C35.6283 20.0286 36.0028 19.1354 35.8136 18.3461C35.6244 17.5569 34.8856 16.9303 33.7336 16.582C33.114 16.3947 32.4192 16.3009 31.6851 16.3009V16.3007Z" fill="#3A3A3A"></path>
<path d="M61.614 26.0835C61.8023 26.2453 62.1912 26.5599 63.0924 26.9131C63.6585 27.1353 64.7497 27.5378 65.2941 27.8089C65.8384 28.08 66.1194 28.1823 66.3263 28.7544C66.5332 29.3265 66.3587 30.3321 65.827 30.6275C67.0974 32.481 65.8174 33.1903 65.2396 33.1623C64.082 33.1064 62.7104 32.3996 61.7191 31.7996C60.7278 31.1996 59.984 30.6474 59.105 29.8922C60.08 28.8247 61.5794 26.1261 61.614 26.0835Z" fill="#FF6D3E"></path>
<path d="M66.0594 31.0026C65.7161 30.7481 65.3131 30.5633 64.8996 30.4519C64.2189 30.2676 63.468 30.2435 62.8907 29.8397C62.2009 29.3566 61.9401 28.4288 62.0316 27.5917C62.0709 27.2315 62.1644 26.8832 62.2883 26.5433C61.9315 26.3485 61.7329 26.1856 61.6137 26.0835C61.5794 26.1258 60.08 28.8244 59.105 29.8919C59.9837 30.6474 60.7278 31.1993 61.7191 31.7996C62.7107 32.3994 64.0826 33.1064 65.2398 33.1623C65.777 33.1886 66.9207 32.5772 66.0594 31.0024V31.0026Z" fill="#F54E22"></path>
<path d="M65.2725 33.609C65.2543 33.609 65.2363 33.6088 65.2183 33.6077C64.2281 33.5598 62.9732 33.0798 61.4884 32.1808C60.5187 31.5938 59.7442 31.0286 58.8146 30.2302L58.4658 29.9306L58.7759 29.5912C59.3092 29.0075 60.101 27.8085 61.1297 26.0276C61.2365 25.8428 61.2406 25.8356 61.2674 25.8024L61.5562 25.4458L61.9042 25.7448C62.035 25.8572 62.3821 26.1554 63.255 26.4978C63.3745 26.5449 63.5178 26.5996 63.6744 26.66C64.2851 26.8945 65.0452 27.1867 65.493 27.4096C65.5314 27.4287 65.5682 27.447 65.6042 27.4647C66.1007 27.7095 66.4926 27.9026 66.7459 28.6028C66.9752 29.2368 66.856 30.1647 66.4063 30.7102C66.9811 31.7116 66.8516 32.3957 66.6229 32.8057C66.3244 33.3404 65.7295 33.609 65.2725 33.609ZM59.7329 29.8393C60.4836 30.4629 61.1327 30.9235 61.9501 31.4184C63.3068 32.2397 64.4209 32.6768 65.2615 32.7172C65.3937 32.7235 65.7007 32.6286 65.8442 32.3714C66.0287 32.0405 65.8924 31.511 65.4598 30.88L65.1829 30.4759L65.6111 30.238C65.8957 30.08 66.0619 29.3334 65.9076 28.9065C65.7765 28.5444 65.6567 28.4852 65.21 28.265C65.1732 28.2467 65.1351 28.2282 65.0955 28.2083C64.6859 28.0044 63.9164 27.7087 63.3546 27.4926C63.1959 27.4318 63.0509 27.3759 62.9295 27.3283C62.3915 27.1172 62.0167 26.915 61.7476 26.7396C60.9275 28.1447 60.2523 29.1834 59.7329 29.8393Z" fill="#3A3A3A"></path>
<path d="M65.9444 31.144C64.4903 30.8558 63.1709 30.154 62.1655 29.1841C63.3532 29.9194 64.7179 30.2809 66.0287 30.2563L65.9444 31.144Z" fill="#3A3A3A"></path>
<path d="M54.2513 26.4011C56.1775 28.3276 57.824 29.908 58.7398 29.9924C59.6412 30.0754 61.3163 27.0891 61.667 26.1571C62.1051 24.9936 59.6838 23.2713 58.0265 21.9805C57.0177 22.9894 54.251 26.4011 54.251 26.4011H54.2513Z" fill="#FF6D3E"></path>
<path d="M58.5431 28.4673C58.2325 28.3531 57.289 27.9069 58.2911 27.2593C59.8185 26.288 60.1941 25.0783 59.988 23.5327C59.4658 23.0873 58.8916 22.648 58.3653 22.2422C57.8685 22.6217 57.2644 23.0713 56.6894 23.4702C55.5476 24.8022 54.2515 26.4006 54.2515 26.4006C56.1779 28.3268 57.8245 29.9072 58.7403 29.9919C59.2083 30.035 59.8851 29.2499 60.4768 28.3545C59.3978 28.6618 58.7835 28.5556 58.5431 28.4668V28.4673Z" fill="#F54E22"></path>
<path d="M58.7777 30.4399C58.7511 30.4399 58.7251 30.4388 58.6989 30.4363C57.632 30.3381 56.0519 28.8324 53.9359 26.7164L53.6519 26.4323L53.9049 26.1202C54.0186 25.9803 56.698 22.6789 57.7114 21.6653L57.99 21.3867L58.3006 21.6288C58.4447 21.7411 58.5946 21.8564 58.7478 21.9746C60.5537 23.366 62.6005 24.9434 62.0844 26.3144C61.896 26.8151 61.3746 27.8232 60.7794 28.7051C59.9831 29.8855 59.3442 30.4402 58.7777 30.4402V30.4399ZM54.8512 26.3703C56.1868 27.7029 58.0085 29.4772 58.7805 29.5483C58.882 29.5436 59.3207 29.2844 60.0741 28.1552C60.5969 27.3717 61.0823 26.4442 61.2496 25.9999C61.3561 25.7175 61.0911 25.227 60.5039 24.6189C59.8799 23.9727 58.9893 23.2864 58.2035 22.6811C58.159 22.6468 58.1147 22.6128 58.0707 22.5787C57.1582 23.5614 55.4865 25.5932 54.8512 26.3706V26.3703Z" fill="#3A3A3A"></path>
<path d="M59.1817 20.3909H59.1811C58.699 17.871 55.6089 15.3603 51.4589 14.3658C46.6564 13.2147 42.198 14.5163 41.283 17.2777C41.283 17.2777 41.283 17.2777 41.283 17.2779C41.2537 17.3665 41.228 17.4566 41.2061 17.5482C41.1892 17.6185 41.1757 17.689 41.1635 17.7598C40.0361 22.8925 44.1682 26.0979 48.9029 27.0399C53.886 28.0313 60.6172 27.2769 59.1817 20.3912V20.3909Z" fill="#989899"></path>
<path d="M52.3641 27.8408C50.9891 27.8408 49.7315 27.659 48.8159 27.477C45.5328 26.8239 42.8816 25.2014 41.5426 23.0259C40.4827 21.3041 40.2509 19.3298 40.8536 17.1582L41.7127 17.3967C41.1789 19.3196 41.3772 21.0563 42.3019 22.5584C43.5114 24.5234 45.949 25.9973 48.9899 26.6023C52.002 27.2015 55.8926 27.1636 57.7787 25.2598C58.8547 24.1737 59.1799 22.5662 58.7454 20.482L59.6183 20.3C60.1179 22.6956 59.7121 24.5754 58.4121 25.8874C57.415 26.8941 55.9349 27.5196 54.0131 27.747C53.4547 27.8131 52.9007 27.8408 52.3644 27.8408H52.3641Z" fill="#3A3A3A"></path>
<path d="M52.3546 25.8988C51.2051 25.8988 50.0027 25.7546 48.7992 25.4664C46.3251 24.8733 44.1309 23.738 42.6207 22.269C41.0496 20.7412 40.3935 19.0277 40.773 17.4439C41.1525 15.8602 42.5142 14.6303 44.6069 13.9807C46.6188 13.3564 49.0894 13.3389 51.5635 13.9321C54.0377 14.5252 56.2319 15.6605 57.7421 17.1294C59.3131 18.6573 59.9692 20.3708 59.5897 21.9545C59.2102 23.5382 57.8486 24.7682 55.7559 25.4177C54.7225 25.7383 53.5683 25.899 52.3549 25.899L52.3546 25.8988ZM48.0062 14.3902C46.8835 14.3902 45.8198 14.5376 44.8708 14.8322C43.0906 15.3847 41.943 16.3861 41.6399 17.6517C41.3364 18.9173 41.9057 20.3301 43.2419 21.6297C44.639 22.9883 46.6863 24.0428 49.007 24.5991C51.3273 25.1554 53.6302 25.1435 55.4914 24.5659C57.2716 24.0135 58.4192 23.0121 58.7223 21.7465C59.0255 20.4809 58.4565 19.0681 57.1203 17.7684C55.7232 16.4099 53.6759 15.3553 51.3552 14.799C50.2182 14.5265 49.0852 14.3902 48.0062 14.3902Z" fill="#3A3A3A"></path>
<path d="M56.2663 21.16C56.737 19.1961 54.3944 16.951 51.0341 16.1454C47.6737 15.3398 44.568 16.2787 44.0974 18.2425C43.6267 20.2063 45.9692 22.4514 49.3296 23.2571C52.6899 24.0627 55.7956 23.1238 56.2663 21.16Z" fill="#80CAE8"></path>
<path opacity="0.7" d="M54.3779 19.3287C54.7286 20.0137 54.5995 20.5722 54.0878 20.9335C54.017 20.9836 54.3043 20.279 53.4245 19.3096C52.8506 18.6775 52.3895 18.3906 52.3848 18.3074C52.3804 18.2244 53.6596 17.9256 54.3779 19.3284V19.3287Z" fill="white"></path>
<path opacity="0.7" d="M45.5846 19.5144C45.0884 18.1946 46.0872 17.2897 47.0705 17.077C48.6711 16.7304 49.715 16.9088 50.8695 17.6374C48.5325 18.0372 47.9484 18.0361 47.0417 18.326C46.2357 18.5838 45.8584 18.7409 45.5843 19.5144H45.5846Z" fill="white"></path>
<path d="M51.7014 23.9914C50.9009 23.9914 50.0629 23.891 49.2242 23.6899C47.5234 23.2821 46.0113 22.5064 44.9669 21.5056C43.8594 20.4444 43.3961 19.2485 43.6622 18.1381C43.9283 17.0279 44.8834 16.172 46.3512 15.728C47.7359 15.3095 49.4353 15.3034 51.136 15.7112C52.8368 16.1189 54.349 16.8946 55.3934 17.8955C56.5006 18.9566 56.9642 20.1525 56.6981 21.263C56.432 22.3731 55.4769 23.229 54.009 23.673C53.3073 23.8852 52.5243 23.9914 51.7014 23.9914ZM48.658 16.3007C47.924 16.3007 47.2292 16.3944 46.6096 16.5817C45.4573 16.93 44.7188 17.5566 44.5296 18.3458C44.3404 19.1351 44.7149 20.0286 45.5842 20.8613C46.5164 21.7545 47.883 22.4508 49.4325 22.8224C50.982 23.1939 52.516 23.1925 53.7515 22.819C54.9038 22.4707 55.6423 21.8442 55.8315 21.0549C56.0207 20.2657 55.6462 19.3722 54.7771 18.5392C53.845 17.6459 52.4784 16.9497 50.9289 16.5781C50.1566 16.3931 49.388 16.3004 48.6583 16.3004L48.658 16.3007Z" fill="#3A3A3A"></path>
</g>
</g>
<defs>
<clipPath id="SvgjsClipPath1017">
<rect width="59.1063" height="86.4683" fill="white" transform="translate(12.2627 10.2188)"></rect>
</clipPath>
</defs>
</svg><style>@media (prefers-color-scheme: light) { :root { filter: none; } }
@media (prefers-color-scheme: dark) { :root { filter: none; } }
</style></svg>