<svg xmlns="http://www.w3.org/2000/svg" width="82" height="16" fill="none"><mask id="a" width="62" height="12" x="20" y="2" maskUnits="userSpaceOnUse" style="mask-type:luminance"><path fill="#fff" d="M81.404 2.495H20.696v10.847h60.708z"/></mask><g mask="url(#a)"><path fill="#0052FF" d="M32.946 5.532c-2.2 0-3.926 1.673-3.926 3.912 0 2.24 1.686 3.899 3.926 3.899 2.253 0 3.952-1.687 3.952-3.912.014-2.213-1.672-3.9-3.952-3.9m.013 6.192c-1.255 0-2.172-.971-2.172-2.28 0-1.322.904-2.293 2.159-2.293 1.268 0 2.185.984 2.185 2.293.014 1.309-.917 2.28-2.172 2.28m4.425-4.492h1.093v5.962h1.754V5.667h-2.847zM24.608 7.15c.918 0 1.646.566 1.93 1.416h1.848c-.324-1.821-1.822-3.035-3.764-3.035-2.2 0-3.926 1.673-3.926 3.912 0 2.24 1.686 3.899 3.926 3.899 1.902 0 3.413-1.228 3.75-3.05h-1.834a1.97 1.97 0 0 1-1.916 1.43c-1.268 0-2.159-.97-2.159-2.279 0-1.322.877-2.293 2.145-2.293M70.68 8.716l-1.281-.19c-.608-.08-1.053-.296-1.053-.768 0-.526.567-.783 1.35-.783.85 0 1.389.364 1.51.958h1.7c-.189-1.51-1.362-2.401-3.157-2.401-1.848 0-3.076.944-3.076 2.28 0 1.281.81 2.023 2.429 2.253l1.281.188c.634.081.985.338.985.796 0 .594-.607.85-1.457.85-1.039 0-1.619-.418-1.713-1.065H66.47c.162 1.47 1.309 2.509 3.413 2.509 1.916 0 3.184-.877 3.184-2.375-.013-1.335-.93-2.037-2.388-2.252M39.354 2.577c-.648 0-1.12.472-1.12 1.106s.486 1.107 1.12 1.107c.647 0 1.12-.472 1.12-1.107 0-.634-.473-1.106-1.12-1.106m25.727 5.68c0-1.633-.999-2.725-3.09-2.725-1.983 0-3.09.998-3.319 2.55h1.74c.082-.594.554-1.093 1.552-1.093.89 0 1.336.39 1.336.877 0 .62-.81.782-1.794.89-1.35.148-3.009.607-3.009 2.36 0 1.35 1.012 2.227 2.617 2.227 1.255 0 2.05-.526 2.442-1.35.054.743.607 1.228 1.39 1.228h1.025V11.67h-.89zm-1.727 1.889c0 .998-.877 1.74-1.943 1.74-.661 0-1.214-.284-1.214-.864 0-.742.89-.944 1.713-1.038.783-.068 1.228-.243 1.444-.58zm-9.309-4.614c-.985 0-1.794.404-2.374 1.092V2.51h-1.754v10.698h1.727v-.985c.58.715 1.416 1.133 2.415 1.133 2.104 0 3.696-1.66 3.696-3.899-.013-2.252-1.632-3.925-3.71-3.925m-.256 6.192c-1.255 0-2.172-.971-2.172-2.28s.93-2.293 2.185-2.293c1.268 0 2.159.97 2.159 2.293 0 1.309-.918 2.28-2.172 2.28M45.72 5.532c-1.133 0-1.888.472-2.32 1.12V5.68h-1.74v7.528h1.753V9.12c0-1.146.729-1.97 1.808-1.97 1.012 0 1.633.716 1.633 1.74v4.304h1.753V8.756c.014-1.889-.971-3.224-2.887-3.224m35.683 3.67c0-2.16-1.578-3.67-3.696-3.67-2.253 0-3.899 1.686-3.899 3.912 0 2.347 1.767 3.899 3.926 3.899 1.821 0 3.251-1.08 3.615-2.604h-1.82c-.257.675-.905 1.052-1.768 1.052-1.12 0-1.97-.701-2.159-1.915h5.801zm-5.693-.58c.284-1.053 1.066-1.552 1.97-1.552.998 0 1.754.566 1.929 1.551z"/></g><path fill="#0052FF" d="M8.596 0a8 8 0 1 1-8 8c0-4.425 3.575-8 8-8"/><path fill="#fff" d="M8.596 10.807a2.82 2.82 0 0 1-2.82-2.82 2.81 2.81 0 0 1 2.82-2.82 2.8 2.8 0 0 1 2.765 2.348h2.833c-.242-2.887-2.657-5.154-5.598-5.154A5.63 5.63 0 0 0 2.97 7.987a5.63 5.63 0 0 0 5.626 5.626 5.606 5.606 0 0 0 5.599-5.154H11.36a2.8 2.8 0 0 1-2.765 2.348"/></svg>