<svg xmlns="http://www.w3.org/2000/svg" width="613" height="138" fill="none"><path fill="#517EFF" d="M597.906 51.307V92.69c-2.609 1.132-5.698 1.78-7.687 3.697-3.585 3.459-3.285 9.13-3.414 14.103-.132 4.973-1.88 10.987-6.751 12.062-5.207 1.149-9.504-4.457-10.557-9.669-1.058-5.214-.499-10.912-3.126-15.537-2.426-4.27-8.318-7.794-7.804-13.306.191-2.068 1.636-3.456 1.423-5.591-.236-2.305-2.036-4.619-3.968-5.78-1.187-.713-2.552-1.143-3.622-2.017-1.999-1.63-2.578-4.432-4.162-6.468-1.708-2.19-4.653-3.356-7.404-2.927-5.877.916-9.74 8.156-15.669 7.752-1.818-.125-3.526-.996-5.346-1.075-2.301-.102-4.471 1.062-6.723 1.507a8.3 8.3 0 0 1-1.622.166c-2.723-.015-5.02-1.651-6.924-3.702a28 28 0 0 1-2.034-2.495c-3.074-4.201-6.88-8.911-12.65-8.723-5.987.197-11.066 5.291-15.116 9.147-3.412 3.246-8.132 6.33-12.986 6.54-1.872.08-4.119-.385-5.733-1.39-2.135-1.33-3.337-3.501-6.112-3.73-1.89-.15-3.767.765-5.073 2.138-1.308 1.37-2.108 3.154-2.634 4.974-.355 1.224-.611 2.512-1.336 3.562-.889 1.289-2.471 2.071-4.037 1.994-.467-.025-.949-.124-1.334-.387-2.192-1.507-.556-6.207-1.931-8.33-1.14-1.756-4.333-1.376-5.028.593-.874 2.483 1.887 5.249.854 7.672-.695 1.632-2.734 2.175-3.958 3.464-2.783 2.935-.332 8.168-2.47 11.602-1.028 1.656-2.995 2.627-3.814 4.395-.737 1.596-.367 3.456-.452 5.211-.082 1.758-1.013 3.807-2.773 3.948-1.753.144-2.98-1.683-3.58-3.332-1.48-4.082-1.632-8.499-2.243-12.794-.61-4.295-1.815-8.75-4.893-11.818-1.768-1.766-4.095-3.005-5.44-5.105-1.142-1.773-1.435-3.943-1.669-6.038-.241-2.094-.464-4.259-1.497-6.098-2.674-4.755-9.279-3.804-13.487-2.163a68.9 68.9 0 0 0-17.005 9.616c-2.848 2.198-5.564 4.646-8.844 6.118-5.326 2.393-11.878 1.83-16.718-1.44-2.815-1.902-5.224-4.713-8.566-5.356-3.312-.638-6.599 1.053-9.953 1.44-8.413.976-16.534-6.222-24.737-4.124-3.623.927-6.607 3.566-10.208 4.566-6.773 1.88-14.609-2.281-20.781 1.068-3.985 2.168-5.925 6.838-9.532 9.584-3.24 2.465-6.997 2.99-10.863 2.334-1.703-.29-3.431-.812-5.142-1.498-4.372-1.755-8.648-4.598-12.238-7.448-2.726-2.165-5.631-4.434-9.095-4.846-3.039-.363-6.023.77-8.948 1.673-9.073 2.798-18.791 3.449-28.164 1.959-6.053-.963-15.254-5.398-21.149-2.423-4.169 2.103-6.277 7.513-10.813 8.618-2.07.506-4.293-.018-6.366.476-3.387.812-5.571 4.107-6.778 7.364-1.204 3.258-1.81 6.794-3.702 9.706-1.89 2.915-5.698 5.055-8.867 3.613-3.473-1.58-4.084-6.183-3.997-9.989.084-3.804.084-8.27-2.972-10.557-2.55-1.907-6.624-1.686-8.3-4.392-1.264-2.034-.479-4.79-1.502-6.95-1.758-3.707-7.439-3.237-10.739-.79-3.297 2.449-5.609 6.193-9.286 8.03-2.18 1.093-4.717 1.435-6.776 2.749-5.708 3.637-5.231 12.697-10.453 17.002-4.042 3.33-10.96 2.155-13.665-2.319-.54-.889-.981-1.929-1.897-2.42-.929-.5-2.071-.281-3.08.03-7.932 2.455-13.772 10.467-13.663 18.747.038 2.749.649 5.587-.23 8.191-1.301 3.866-5.6 6.304-6.414 10.299-.645 3.158.86 7.146-1.604 9.237-2.274 1.929-6.008.052-7.257-2.652-.844-1.823-.978-3.834-1.075-5.86-.047-.978-.085-1.961-.189-2.925-.63-5.976-3.85-11.562-3.771-17.571.042-3.275 1.067-6.453 1.41-9.71.395-3.744-.564-7.63-1.907-11.533-3.056-8.884-8.1-17.87-3.657-25.531 1.043-1.798 2.326-3.444 3.657-5.058 2.384-2.89 4.921-5.678 6.503-9.055 1.561-3.334 2.093-7.059 3.5-10.458q.219-.525.462-1.035a17.5 17.5 0 0 1 7.126-1.507h545.426c9.718 0 17.594 7.878 17.594 17.593z" opacity=".47" style="mix-blend-mode:multiply"/><path fill="#fff" d="M611.1 68.183c-2.197 3.963-6.239 6.888-10.721 7.63-1.5.25-3.059.268-4.479.814-4.286 1.644-4.05 5.75-6.448 8.678-2.587 3.16-8.104 3.158-11.111 6.056-3.585 3.458-3.285 9.129-3.414 14.102-.134 4.973-1.88 10.987-6.751 12.062-5.209 1.15-9.505-4.457-10.557-9.668-1.058-5.214-.499-10.912-3.126-15.538-2.426-4.27-8.318-7.794-7.804-13.306.191-2.068 1.636-3.456 1.423-5.591-.236-2.304-2.036-4.618-3.968-5.78-1.187-.713-2.552-1.142-3.622-2.016-2.002-1.631-2.578-4.432-4.162-6.468-1.708-2.19-4.653-3.357-7.406-2.927-5.875.916-9.738 8.156-15.67 7.751-1.815-.124-3.523-.995-5.343-1.075-2.302-.102-4.472 1.063-6.724 1.507a8.2 8.2 0 0 1-1.621.167c-2.724-.015-5.02-1.652-6.927-3.702a28 28 0 0 1-2.031-2.496c-3.074-4.2-6.88-8.91-12.65-8.722-5.987.196-11.067 5.291-15.116 9.147-3.412 3.245-8.132 6.329-12.986 6.54-1.872.08-4.119-.385-5.733-1.39-2.135-1.331-3.337-3.501-6.113-3.73-1.889-.151-3.766.765-5.072 2.138-1.309 1.37-2.108 3.153-2.637 4.973-.353 1.224-.608 2.513-1.333 3.563-.889 1.288-2.471 2.07-4.037 1.994-.467-.025-.949-.124-1.334-.388-2.192-1.507-.556-6.207-1.934-8.33-1.137-1.755-4.33-1.375-5.025.594-.874 2.483 1.884 5.248.854 7.672-.695 1.631-2.734 2.175-3.958 3.463-2.783 2.935-.333 8.169-2.47 11.603-1.028 1.656-2.995 2.627-3.814 4.394-.738 1.597-.368 3.457-.452 5.212-.084 1.758-1.013 3.806-2.773 3.948-1.753.144-2.98-1.684-3.581-3.332-1.479-4.082-1.633-8.5-2.242-12.794-.611-4.296-1.817-8.75-4.896-11.819-1.768-1.765-4.092-3.004-5.437-5.105-1.143-1.772-1.436-3.942-1.671-6.038-.239-2.093-.462-4.258-1.495-6.098-2.674-4.755-9.279-3.804-13.487-2.162a68.8 68.8 0 0 0-17.006 9.616c-2.847 2.197-5.564 4.645-8.844 6.117-5.325 2.394-11.878 1.83-16.717-1.44-2.815-1.901-5.224-4.712-8.566-5.355-3.314-.638-6.599 1.053-9.954 1.44-8.414.976-16.533-6.222-24.737-4.124-3.622.926-6.607 3.565-10.207 4.566-6.773 1.88-14.609-2.282-20.784 1.067-3.985 2.168-5.922 6.838-9.532 9.584-3.238 2.466-6.994 2.99-10.86 2.334-1.706-.29-3.431-.812-5.142-1.497-4.372-1.755-8.648-4.598-12.238-7.449-2.726-2.165-5.634-4.434-9.095-4.846-3.039-.362-6.026.77-8.948 1.673-9.073 2.799-18.791 3.45-28.164 1.96-6.053-.964-15.255-5.398-21.149-2.424-4.169 2.103-6.277 7.513-10.813 8.618-2.071.507-4.293-.017-6.369.477-3.384.812-5.571 4.106-6.775 7.364s-1.81 6.793-3.702 9.706c-1.89 2.914-5.699 5.055-8.867 3.612-3.473-1.58-4.084-6.182-3.997-9.989.084-3.803.084-8.27-2.972-10.557-2.55-1.906-6.625-1.685-8.3-4.392-1.264-2.033-.48-4.79-1.503-6.95-1.76-3.706-7.438-3.237-10.738-.789s-5.609 6.192-9.286 8.03c-2.18 1.092-4.718 1.435-6.776 2.748-5.71 3.638-5.231 12.697-10.455 17.003-4.04 3.33-10.957 2.155-13.664-2.32-.54-.888-.98-1.928-1.897-2.42-.928-.499-2.07-.28-3.078.03-7.933 2.455-13.775 10.468-13.664 18.748.038 2.748.648 5.586-.23 8.191-1.302 3.866-5.6 6.304-6.414 10.299-.645 3.158.86 7.145-1.604 9.236-2.274 1.929-6.01.052-7.257-2.652-.844-1.822-.979-3.833-1.075-5.859-.05-.978-.087-1.962-.19-2.925-.632-5.976-3.853-11.563-3.773-17.571.045-3.275 1.07-6.453 1.413-9.71C8.613 80.596-4.641 66.83 1.753 55.8c2.46-4.24 6.246-7.627 8.849-11.739.481-.762.923-1.552 1.308-2.376 1.562-3.334 2.093-7.059 3.5-10.458 3.983-9.626 14.518-15.227 24.89-16.469 10.365-1.239 20.786 1.085 31.033 3.092 19.826 3.878 35.192-1.267 54.653-3.176 20.968-2.056 42.276-.732 62.815 3.96 7.729 1.765 15.692 4.01 23.458 2.416 7.819-1.604 14.52-6.957 22.398-8.236 12.345-2.003 24.141 6.327 36.645 6.575 18.915.375 33.939-17.368 52.766-19.225 14.029-1.383 27.131 6.247 40.563 10.523 15.722 5.002 32.486 5.447 48.983 5.85 4.417.106 8.891.21 13.189-.813 3.183-.755 6.277-2.125 9.547-2.127 6.885 0 12.379 5.911 19.118 7.292 10.527 2.152 20.26-7.077 31.006-7.218 5.842-.075 12.159 2.297 17.457 4.596 4.916 2.135 8.921 4.553 14.585 3.17 5.038-1.231 9.139-4.809 13.894-6.872q1.093-.473 2.227-.84c11.767-3.798 26.473.932 36.866 6.379 5.375 2.816 10.515 6.637 16.556 7.233 2.279.226 4.601-.03 6.88.139.559.04 1.117.104 1.671.208 3.123.589 5.865 2.414 7.796 4.887a14.05 14.05 0 0 1 2.654 5.539c.504 2.22.462 4.521.355 6.793-.052 1.115-.119 2.254.182 3.327.265.958.812 1.812 1.35 2.652 3.683 5.747 5.803 10.716 2.141 17.305z"/><path fill="#DEF2FF" d="M611.1 68.184c-2.197 3.963-6.239 6.888-10.721 7.63-1.5.25-3.059.268-4.479.814-4.286 1.644-4.05 5.75-6.448 8.678-2.587 3.16-8.104 3.158-11.111 6.056-3.585 3.458-3.285 9.129-3.414 14.102-.134 4.973-1.88 10.987-6.751 12.062-5.209 1.15-9.505-4.457-10.557-9.668-1.058-5.214-.499-10.912-3.126-15.538-2.426-4.27-8.318-7.794-7.804-13.306.191-2.068 1.636-3.456 1.423-5.591-.236-2.304-2.036-4.618-3.968-5.78-1.187-.713-2.552-1.142-3.622-2.016-2.002-1.631-2.578-4.432-4.162-6.468-1.708-2.19-4.653-3.357-7.406-2.927-5.875.916-9.738 8.156-15.67 7.751-1.815-.124-3.523-.995-5.343-1.075-2.302-.102-4.472 1.063-6.724 1.507a8.2 8.2 0 0 1-1.621.166c-2.724-.014-5.02-1.65-6.927-3.702a28 28 0 0 1-2.031-2.495c-3.074-4.2-6.88-8.91-12.65-8.722-5.987.196-11.067 5.291-15.116 9.147-3.412 3.245-8.132 6.329-12.986 6.54-1.872.08-4.119-.385-5.733-1.39-2.135-1.332-3.337-3.501-6.113-3.73-1.889-.151-3.766.765-5.072 2.138-1.309 1.37-2.108 3.153-2.637 4.973-.353 1.224-.608 2.513-1.333 3.563-.889 1.288-2.471 2.07-4.037 1.994-.467-.025-.949-.125-1.334-.388-2.192-1.507-.556-6.207-1.934-8.33-1.137-1.755-4.33-1.375-5.025.594-.874 2.483 1.884 5.248.854 7.672-.695 1.63-2.734 2.175-3.958 3.463-2.783 2.935-.333 8.169-2.47 11.603-1.028 1.656-2.995 2.627-3.814 4.394-.738 1.597-.368 3.457-.452 5.212-.084 1.758-1.013 3.806-2.773 3.948-1.753.144-2.98-1.684-3.581-3.332-1.479-4.082-1.633-8.5-2.242-12.794-.611-4.296-1.817-8.75-4.896-11.819-1.768-1.765-4.092-3.004-5.437-5.105-1.143-1.772-1.436-3.942-1.671-6.038-.239-2.093-.462-4.258-1.495-6.098-2.674-4.755-9.279-3.804-13.487-2.162a68.8 68.8 0 0 0-17.006 9.616c-2.847 2.197-5.564 4.645-8.844 6.117-5.325 2.394-11.878 1.83-16.717-1.44-2.815-1.901-5.224-4.712-8.566-5.355-3.314-.638-6.599 1.053-9.954 1.44-8.414.976-16.533-6.222-24.737-4.124-3.622.926-6.607 3.565-10.207 4.566-6.773 1.88-14.609-2.282-20.784 1.067-3.985 2.168-5.922 6.838-9.532 9.584-3.238 2.466-6.994 2.99-10.86 2.334-1.706-.29-3.431-.812-5.142-1.497-4.372-1.755-8.648-4.598-12.238-7.449-2.726-2.165-5.634-4.434-9.095-4.846-3.039-.363-6.026.77-8.948 1.673-9.073 2.798-18.791 3.449-28.164 1.96-6.053-.964-15.255-5.398-21.149-2.424-4.169 2.103-6.277 7.513-10.813 8.618-2.071.507-4.293-.017-6.369.477-3.384.812-5.571 4.106-6.775 7.364s-1.81 6.793-3.702 9.705c-1.89 2.915-5.699 5.056-8.867 3.613-3.473-1.58-4.084-6.182-3.997-9.989.084-3.803.084-8.27-2.972-10.557-2.55-1.907-6.625-1.686-8.3-4.392-1.264-2.033-.48-4.79-1.503-6.95-1.76-3.706-7.438-3.237-10.738-.789s-5.609 6.192-9.286 8.03c-2.18 1.092-4.718 1.435-6.776 2.748-5.71 3.638-5.231 12.698-10.455 17.003-4.04 3.33-10.957 2.155-13.664-2.32-.54-.888-.98-1.928-1.897-2.42-.928-.499-2.07-.28-3.078.03-7.933 2.455-13.775 10.468-13.664 18.748.038 2.748.648 5.586-.23 8.191-1.302 3.866-5.6 6.304-6.414 10.299-.645 3.158.86 7.145-1.604 9.236-2.274 1.929-6.01.052-7.257-2.652-.844-1.822-.979-3.833-1.075-5.859-.05-.979-.087-1.962-.19-2.925-.632-5.976-3.853-11.563-3.773-17.571.045-3.275 1.07-6.453 1.413-9.71C8.613 80.597-4.641 66.83 1.753 55.801c2.46-4.24 6.246-7.627 8.849-11.739.978 1.698 2.358 3.213 4.317 4.511 7.243 4.795 18.001 4.234 25.482.55 6.31-3.107 11.632-8.512 18.547-9.778 5.81-1.065 11.886.995 17.661-.258 5.815-1.267 10.734-5.79 16.678-6.098 10.105-.522 16.834 10.87 26.604 13.506 17.33 4.678 30.358-19.133 48.277-20.126 10.483-.583 19.488 6.774 27.843 13.13 8.355 6.358 18.964 12.37 28.836 8.791 7.732-2.798 12.549-10.76 20.03-14.172 5.286-2.41 13.959-3.322 19.481-1.112 7.898 3.158 11.567 11.466 21.588 9.696 9.127-1.61 14.818-11.573 23.819-13.785 10.361-2.545 20.766 6.055 31.316 4.479 6.913-1.036 12.549-6.272 19.364-7.804 13.497-3.034 27.031 8.482 39.016 13 16.531 6.232 25.654-9.67 41.817-8.342 7.039.578 13.226 5.251 20.26 5.944 8.452.832 16.186-3.61 24.41-2.374 8.034 1.207 13.603 2.895 22.152 1.443 13.651-2.322 30.358-9.716 43.056-.594 3.021 2.173 5.398 5.105 8.096 7.665 7.442 7.046 18.796 11.183 28.119 6.927 7.921-3.61 11.682-14.795 7.568-21.784.559.04 1.117.104 1.671.208 3.123.589 5.865 2.413 7.796 4.886a14.05 14.05 0 0 1 2.654 5.54c.504 2.22.462 4.521.355 6.793-.052 1.115-.119 2.254.182 3.327.265.958.812 1.812 1.35 2.652 3.683 5.747 5.803 10.716 2.141 17.305z"/><path fill="#B1E0FF" d="M228.901 76.023c-4.372-1.755-8.647-4.598-12.238-7.448-2.723-2.165-5.631-4.434-9.095-4.847-3.039-.362-6.026.77-8.95 1.674-9.073 2.798-18.791 3.448-28.164 1.959-6.053-.964-15.255-5.398-21.149-2.424-4.169 2.103-6.277 7.514-10.815 8.618-2.071.507-4.291-.017-6.367.477-3.386.812-5.571 4.107-6.778 7.364-1.204 3.258-1.81 6.793-3.702 9.706-1.892 2.915-5.698 5.055-8.866 3.612-3.474-1.579-4.085-6.182-3.998-9.988.085-3.804.085-8.27-2.969-10.557-2.55-1.907-6.627-1.686-8.3-4.392-1.262-2.034-.48-4.79-1.503-6.95-1.758-3.707-7.438-3.238-10.736-.79-3.3 2.449-5.608 6.193-9.286 8.03-2.182 1.093-4.717 1.435-6.778 2.749-5.708 3.637-5.231 12.697-10.453 17.002-4.04 3.33-10.957 2.155-13.663-2.319-.539-.889-.983-1.929-1.9-2.42-.928-.5-2.068-.281-3.076.03-7.935 2.455-13.772 10.467-13.663 18.747.037 2.749.648 5.587-.229 8.191-1.303 3.866-5.598 6.304-6.413 10.299-.643 3.158.86 7.146-1.604 9.236-2.274 1.93-6.008.055-7.257-2.651-.844-1.823-.981-3.834-1.078-5.86 8.072-.405 10.05-15.413 10.672-21.052.625-5.673 1.894-11.796 6.254-15.498 5.271-4.472 14.043-4.477 17.571-10.413 1.314-2.203 1.62-4.877 2.848-7.126 1.23-2.25 4.132-4.042 6.322-2.701 3.041 1.86 1.966 7.875 5.447 8.647 3.099.686 4.425-3.662 6.359-6.167 3.354-4.345 10.45-3.578 14.56-7.22 4.032-3.578 4.446-10.738 9.47-12.702 4.684-1.835 9.78 2.84 10.591 7.793.315 1.927.34 4.177 1.872 5.396 1.855 1.477 4.658.444 6.908 1.199 2.907.976 3.94 4.434 4.938 7.324s3.243 6.153 6.264 5.616c3.715-.657 4.179-6.12 7.342-8.173 3.134-2.031 7.377.097 11.007-.792 3.339-.82 5.527-4.032 6.751-7.235 1.221-3.203 1.832-6.68 3.632-9.601.703-1.143 1.783-2.277 3.126-2.228 2.034.072 2.868 2.54 3.881 4.3 1.82 3.174 5.87 4.89 9.425 3.993 3.551-.896 6.297-4.325 6.386-7.977.062-2.647-1.115-5.204-1.063-7.849.053-2.644 2.324-5.633 4.847-4.809-2.051 2.24-.524 5.894 1.564 8.094s4.827 4.194 5.321 7.186c.189 1.137.017 2.319.261 3.448.936 4.373 7.021 5.204 11.255 3.72 4.228-1.483 8.317-4.298 12.757-3.68 8.809 1.234 10.458 13.75 17.708 18.887 1.407.998 3.088 1.788 4.752 2.575zM492.679 60.86l-.01.017a28 28 0 0 1-2.031-2.495c-3.071-4.201-6.88-8.911-12.65-8.722-5.984.196-11.069 5.29-15.119 9.147-3.411 3.245-8.129 6.328-12.983 6.54-1.874.079-4.119-.385-5.735-1.391-2.135-1.33-3.337-3.5-6.113-3.73-1.892-.15-3.767.766-5.073 2.139-1.308 1.37-2.108 3.153-2.634 4.973-.352 1.224-.611 2.512-1.336 3.563-.889 1.288-2.47 2.07-4.037 1.993-.467-.025-.946-.124-1.331-.387-2.192-1.507-.556-6.207-1.931-8.33-1.138-1.755-4.333-1.376-5.028.593-.874 2.483 1.887 5.25.854 7.672-.695 1.632-2.734 2.175-3.958 3.464-2.786 2.935-.333 8.169-2.47 11.602-1.028 1.657-2.995 2.627-3.814 4.395-.737 1.597-.37 3.456-.452 5.212-.082 1.758-1.01 3.806-2.771 3.947-1.753.144-2.979-1.683-3.58-3.332-1.48-4.081-1.631-8.498-2.242-12.794-.611-4.295-1.815-8.75-4.894-11.818-1.768-1.765-4.094-3.004-5.44-5.105-1.14-1.773-1.435-3.943-1.671-6.038-.238-2.093-.464-4.258-1.497-6.098-2.672-4.755-9.279-3.804-13.487-2.163a68.8 68.8 0 0 0-17.003 9.616c-2.845 2.198-5.564 4.646-8.846 6.118-5.326 2.394-11.881 1.83-16.718-1.44-2.815-1.902-5.224-4.712-8.566-5.355-3.312-.639-6.597 1.052-9.951 1.44-8.412.975-16.534-6.223-24.74-4.124-3.622.926-6.604 3.565-10.207 4.566-6.773 1.88-14.609-2.282-20.784 1.067-3.985 2.168-5.924 6.838-9.532 9.584-3.237 2.465-6.997 2.99-10.86 2.334 2.247-1.53 4.042-3.814 4.899-6.321.695-2.034 1.058-4.316 2.58-5.838 1.306-1.308 3.225-1.795 4.705-2.902 2.49-1.867 3.369-5.177 3.716-8.263.348-3.086.356-6.314 1.719-9.105 1.363-2.793 4.68-4.98 7.575-3.83 2.977 1.181 3.781 4.89 4.698 7.954.948 3.178 2.517 6.274 5.075 8.392 2.557 2.116 6.234 3.084 9.315 1.838 5.038-2.039 7.677-9.256 13.103-8.929 3.133.192 5.39 2.965 8.128 4.497 3.233 1.807 7.407 1.807 10.64 0 1.705-.956 3.247-2.401 5.194-2.617 2.426-.266 4.563 1.45 6.863 2.272 4.096 1.465 9.099-.271 11.406-3.953 1.125-1.8 1.624-3.923 2.664-5.775s2.942-3.51 5.053-3.245c2.902.365 4.092 3.788 5.797 6.16 2.913 4.054 8.944 5.5 13.386 3.205 1.996-1.03 3.612-2.669 5.541-3.814 3.682-2.192 8.172-2.43 12.459-2.612 2.565-.106 5.289-.178 7.516 1.103 4.71 2.711 4.576 9.574 7.732 13.993 3.315 4.64 10.689 5.696 15.18 2.173 3.499-2.744 5.639-7.836 10.068-8.288 3.794-.385 7.052 3.046 10.863 3.16 8.7.259 8.295-10.7 8.71-16.431.055-.735.127-1.52.591-2.09 1.147-1.413 3.573-.336 4.434 1.266.862 1.601.951 3.558 1.969 5.065 1.887 2.79 6.016 2.84 9.256 1.897 3.241-.944 6.461-2.585 9.805-2.123 2.63.362 5.018 2.013 7.675 2.008 2.657-.007 5.028-1.668 7.65-2.09 6.954-1.13 12.238 6.62 13.02 13.601.112 1.013.159 2.1-.35 2.984zM611.1 68.183c-2.2 3.963-6.242 6.888-10.721 7.63-1.5.251-3.059.268-4.477.815-4.285 1.643-4.049 5.75-6.448 8.677-2.589 3.16-8.104 3.158-11.111 6.056-3.585 3.459-3.287 9.129-3.416 14.103-.132 4.973-1.88 10.986-6.751 12.061-5.209 1.15-9.504-4.456-10.557-9.668-1.055-5.214-.499-10.912-3.126-15.538-2.426-4.27-8.315-7.793-7.804-13.305.191-2.069 1.636-3.456 1.423-5.592-.234-2.304-2.034-4.618-3.968-5.78-1.187-.712-2.55-1.142-3.622-2.016-2.002-1.631-2.578-4.432-4.162-6.468-1.708-2.19-4.653-3.357-7.404-2.927-5.874.916-9.738 8.156-15.669 7.751-1.815-.124-3.526-.995-5.346-1.075-2.301-.101-4.469 1.063-6.723 1.508 2.972-2.203 5.161-5.495 5.77-9.15.534-3.223.107-6.952 2.371-9.31.271-.281.591-.542.973-.604.926-.156 1.619.85 1.852 1.753.512 1.969.1 4.042.102 6.075.005 2.032.616 4.318 2.411 5.282 2.9 1.554 6.078-1.306 8.422-3.608 1.924-1.887 4.154-3.608 6.781-4.226 2.629-.618 5.723.114 7.26 2.327.941 1.353 1.209 3.07 2.061 4.484 2.5 4.126 8.791 4.126 12.027 7.711 4.437 4.914.827 13.457 4.566 18.915.797 1.164 2.003 2.16 3.414 2.267 3.746.288 5.139-5.023 8.404-6.875 3.628-2.059 8.112.757 12.276.454 3.799-.273 7.153-3.545 7.513-7.327.122-1.264-.052-2.567.338-3.774.95-2.952 4.561-3.888 7.552-4.732 2.861-.807 5.709-1.98 7.834-4.05 2.13-2.068 3.424-5.177 2.706-8.05-.538-2.16-2.145-4.074-2.053-6.296.077-1.914 1.4-3.535 1.979-5.36.844-2.652.074-5.301-1.361-7.747a14.05 14.05 0 0 1 2.654 5.54c.504 2.22.462 4.52.355 6.793-.054 1.114-.119 2.254.182 3.327.268.96.812 1.812 1.348 2.651 3.682 5.748 5.802 10.716 2.143 17.306z"/></svg>