<svg xmlns="http://www.w3.org/2000/svg" width="223" height="119" fill="none"><path fill="#517EFF" d="M205.535.379V40.99c0 14.458-11.717 26.175-26.175 26.175H7.678c-.288-.45-.458-.945-.425-1.48.059-.895.676-1.648 1.315-2.28 3.38-3.317 8.012-4.994 12.56-6.317a127 127 0 0 1 21.953-4.347c7.096-.765 14.251-.61 21.251-2.043 10.288-2.102 19.117-9.512 29.575-10.42 6.682-.58 13.257 1.577 19.903 2.493s14.222.247 18.747-4.703c1.714-1.873 2.863-4.24 4.761-5.925 6.786-6.017 17.61-.089 26.423-2.213 10.296-2.474 14.281-14.432 21.481-22.4 1.226-1.355 2.541-2.597 3.997-3.653C193.851.508 199.917-.685 205.532.375z" opacity=".47" style="mix-blend-mode:multiply"/><path fill="#fff" d="M211.383 78.926c-7.292 2.176-16.261-.805-22.064 4.115-1.847 1.57-3.088 3.772-5.017 5.242-4.189 3.203-10.217 2.05-15.064-.022s-9.623-4.976-14.89-4.883c-5.822.1-10.849 3.82-16.006 6.53-5.157 2.708-11.939 4.33-16.457.658-1.803-1.466-3.18-3.727-5.46-4.167-4.388-.85-6.642 4.333-10.424 4.197-1.3-.052-2.726-.322-3.812.399-1.323.875-1.489 2.807-2.642 3.893-1.215 1.145-3.095 1.034-4.746 1.274-4.282.621-7.894 4.385-8.345 8.681-.292 2.815.643 5.663.273 8.474-.365 2.811-3.021 5.737-5.663 4.714-2.789-1.079-2.63-5.017-3.886-7.732-1.156-2.504-3.727-4.104-5.027-6.542-1.44-2.707-1.097-5.991-1.818-8.972-.99-4.12-4.189-6.96-7.428-9.424-1.733-1.318-3.299-1.67-4.876-1.788-1.98-.151-3.982.056-6.361-.864-2.63-1.012-4.049-4.126-6.738-4.965-3.783-1.182-7.056 2.623-10.495 4.588-4.366 2.501-10.291 1.917-14.078-1.392-.676-.588-1.3-1.26-1.91-1.958-2.305-2.626-4.37-5.633-7.72-5.973-3.014-.307-6.542 1.695-8.821-.3-2.446-2.135-2.287-4.321-.942-6.25 2.18-3.121 7.47-5.559 9.9-5.97a146.6 146.6 0 0 1 32.167-1.853c6.372.336 12.83 1.082 19.08-.2 10.287-2.102 19.116-9.512 29.574-10.42 6.682-.58 13.257 1.577 19.903 2.493s14.222.247 18.747-4.703c1.714-1.872 2.863-4.24 4.761-5.925 6.786-6.017 17.61-.088 26.424-2.212 6.324-1.518 10.265-6.616 14.037-12.172 2.368-3.487 4.665-7.151 7.443-10.228 1.227-1.356 2.542-2.597 3.997-3.654 6.568-4.772 16.014-5.182 22.973-.99 6.956 4.19 11.015 12.73 9.863 20.771-.839 5.9-4.204 11.695-2.748 17.477.82 3.254 3.077 5.95 4.34 9.06 3.299 8.094-1.688 18.5-10.062 20.997z"/><path fill="#DEF2FF" d="M211.383 78.927c-7.292 2.176-16.261-.805-22.064 4.115-1.847 1.57-3.088 3.772-5.017 5.242-4.189 3.203-10.217 2.05-15.064-.022s-9.623-4.976-14.89-4.883c-5.822.1-10.849 3.82-16.006 6.53-5.157 2.708-11.939 4.33-16.457.658-1.803-1.466-3.18-3.727-5.46-4.167-4.388-.85-6.642 4.333-10.424 4.197-1.3-.052-2.726-.322-3.812.399-1.323.875-1.489 2.807-2.642 3.893-1.215 1.145-3.095 1.034-4.746 1.274-4.282.621-7.894 4.385-8.345 8.681-.292 2.815.643 5.663.273 8.474-.365 2.811-3.021 5.737-5.663 4.714-2.789-1.079-2.63-5.017-3.886-7.732-1.156-2.504-3.727-4.104-5.027-6.542-1.44-2.708-1.097-5.991-1.818-8.972-.99-4.12-4.189-6.96-7.428-9.424-1.733-1.319-3.299-1.67-4.876-1.788-1.98-.151-3.982.056-6.361-.864-2.63-1.012-4.049-4.126-6.738-4.965-3.783-1.182-7.056 2.623-10.495 4.588-4.366 2.501-10.291 1.917-14.078-1.392-.676-.588-1.3-1.26-1.91-1.958-2.305-2.627-4.37-5.633-7.72-5.973-3.014-.307-6.542 1.695-8.821-.3C-.538 70.575-.38 68.39.966 66.46c2.024.96 4.536 1.05 6.682.285 1.256-.447 2.55-1.109 3.85-.828 1.824.4 2.737 2.394 4.096 3.68 3.805 3.583 10.037 1.004 14.226-2.125 4.185-3.125 9.157-6.915 14.081-5.16 3.816 1.36 6.236 5.792 10.262 6.228 1.95.21 3.853-.595 5.8-.81 9.519-1.026 17.52 11.833 26.493 8.49 5.064-1.888 6.937-7.913 10.266-12.176 3.365-4.296 8.692-6.988 14.148-7.144 1.488-.044 3.021.104 4.355.772 1.614.81 2.77 2.283 4.082 3.52 3.018 2.834 6.944 4.456 10.779 6.018 2.22.905 4.584 1.829 6.952 1.444 7.539-1.219 8.651-13.69 16.143-15.182 2.611-.52 5.507.503 7.883-.705 2.338-1.193 3.198-4.038 4.772-6.14 5.053-6.745 16.464-4.902 22.297-10.993 1.415-1.474 2.423-3.542 1.98-5.537-.846-3.794-5.818-4.67-9.7-4.492-1.552.07-3.247.104-4.847-.1 2.368-3.487 4.666-7.151 7.444-10.228 1.226-1.356 2.541-2.597 3.996-3.653 6.568-4.773 16.014-5.183 22.973-.99 6.956 4.188 11.016 12.729 9.863 20.77-.838 5.9-4.203 11.696-2.748 17.477.82 3.254 3.077 5.95 4.34 9.061 3.299 8.093-1.688 18.5-10.062 20.996z"/><path fill="#B1E0FF" d="M211.383 78.924c-7.292 2.176-16.261-.805-22.064 4.115-1.847 1.57-3.088 3.772-5.016 5.242-4.189 3.203-10.218 2.05-15.064-.022-4.847-2.072-9.623-4.976-14.891-4.883-5.822.1-10.849 3.82-16.006 6.53-5.157 2.708-11.939 4.33-16.457.658-1.802-1.466-3.18-3.727-5.459-4.167-4.389-.85-6.642 4.333-10.425 4.197-1.3-.052-2.726-.322-3.812.399-1.323.875-1.489 2.807-2.641 3.893-1.216 1.145-3.096 1.034-4.747 1.275-4.281.62-7.894 4.384-8.345 8.68-.292 2.815.643 5.663.273 8.474-.365 2.811-3.021 5.737-5.662 4.714-2.79-1.079-2.63-5.017-3.886-7.732-1.157-2.504-3.728-4.104-5.028-6.542-1.44-2.707-1.097-5.991-1.817-8.972-.99-4.12-4.19-6.96-7.43-9.424-1.731-1.318-3.298-1.67-4.875-1.788-1.98-.151-3.982.056-6.361-.864-2.63-1.012-4.049-4.126-6.738-4.965-3.783-1.182-7.056 2.623-10.495 4.588-4.366 2.501-10.291 1.917-14.077-1.392-.676-.588-1.3-1.26-1.91-1.958 2.733 1.182 5.626 2.545 8.112 2.153 4.34-.687 8.256-3.65 10.1-7.635.756-1.636 1.189-3.428 2.13-4.968.946-1.537 2.623-2.834 4.411-2.59 3.757.51 3.772 6.21 6.605 8.725 2.028 1.803 5.12 1.61 7.746.946 2.63-.669 5.294-1.718 7.965-1.27 4.122.69 6.811 4.62 8.728 8.33 1.918 3.708 3.835 7.841 7.584 9.685 3.993 1.965 9.387.303 11.581-3.569 2.01-3.539 1.489-8.282 4.111-11.396 1.955-2.32 5.035-2.947 7.277-4.857 2.885-2.453 1.77-4.621 3.417-7.743.953-1.799 3.089-3.147 5.024-2.511 4.603 1.518 1.474 9.859 5.397 12.71 1.692 1.23 4.005.872 6.077 1.164 5.733.809 11.359 6.778 16.298 3.75 2.818-1.733 3.516-5.656 6.095-7.732 2.674-2.143 6.649-1.692 9.741-.218 3.092 1.47 5.707 3.801 8.762 5.353 3.395 1.728 7.499 2.423 11.049 1.023 3.542-1.4 6.22-5.238 5.519-8.984-.554-2.981-3.004-5.382-3.403-8.389-.532-4.012 2.778-7.58 6.384-9.416 3.605-1.843 7.713-2.634 11.152-4.765 6.043-3.746 9.098-11.721 7.107-18.551-1.995-6.827-8.862-11.902-15.973-11.806-1.389.018-2.933.166-4.008-.713a2.5 2.5 0 0 1-.417-.432c1.226-1.356 2.541-2.597 3.997-3.653 6.568-4.773 16.013-5.183 22.973-.99 6.955 4.189 11.015 12.729 9.863 20.77-.839 5.9-4.204 11.696-2.749 17.477.82 3.254 3.077 5.95 4.341 9.061 3.298 8.094-1.688 18.5-10.063 20.997z"/></svg>