<svg xmlns="http://www.w3.org/2000/svg" width="254" height="89" fill="none"><path fill="#517EFF" d="M253.128 55.402a4.74 4.74 0 0 1-1.077 1.779c-.986 1.027-2.18 1.448-3.464 1.587-.85.093-1.74.06-2.631 0-1.046-.074-2.092-.189-3.084-.194a82 82 0 0 0-6.084.194H33.726q-1.574 0-3.079-.246h-.008a11 11 0 0 0-1.475-.402 14 14 0 0 0-.992-.158c-1.535-.183-3.1-.126-4.641-.317-3.858-.48-7.464-2.625-9.77-5.748-.311-.418-.6-.86-.86-1.314-2.194-3.828-2.481-8.693-.74-12.745q.175-.414.376-.82c.53-1.06 1.17-2.078 1.833-3.084 1.85-2.802 3.883-5.504 4.153-8.794.727-8.867.404-20.765 11.12-24.47 6.613-2.283 14.697 1.484 17.202 8.013.74 1.929 1.047 4.03 2.033 5.838 3.36 6.17 12.105 5.95 19.088 5.202s15.993.05 18.214 6.712c.76 2.279.478 4.836 1.41 7.054 1.609 3.825 6.248 5.38 10.392 5.508 8.639.276 16.777-3.614 24.891-6.587 8.117-2.97 17.405-5.024 25.186-1.254 5.901 2.855 10.409 8.849 16.919 9.644 4.164.505 8.237-1.279 12.406-1.743 8.084-.907 16.515 3.128 24.205.478 3.472-1.197 6.352-3.639 9.584-5.387 3.229-1.743 7.311-2.746 10.502-.927 3.054 1.744 4.283 5.443 6.444 8.215 3.642 4.675 10.035 6.95 15.753 7.497 1.912.18 3.874.175 5.69.8 1.817.626 3.511 2.071 3.743 3.978.069.571 0 1.147-.175 1.694z" opacity=".47" style="mix-blend-mode:multiply"/><path fill="#fff" d="M250.459 59.93c-3.21 1.768-7.125 1.214-10.77.847a83.6 83.6 0 0 0-18.457.205 83.4 83.4 0 0 0-16.088 3.593c-3.38 1.117-7.065 2.453-10.385 1.164-1.472-.574-2.707-1.62-4.111-2.35-7.811-4.043-16.717 2.795-25.459 3.748-6.027.656-11.939-1.554-17.895-2.68-5.953-1.12-12.919-.822-16.987 3.67-3.983 4.398-4.746 12.241-10.472 13.801-2.967.814-6.565-.459-8.955 1.473-.885.718-1.429 1.764-2.167 2.633-4.349 5.123-13.001 1.986-17.514-2.989-4.516-4.974-7.713-11.627-13.849-14.372-7.33-3.281-15.73.306-23.05 3.611-6.214 2.811-16.153 6.841-22.582 2.32-5.652-3.972-5.182-12.982-13.583-14.695-1.847-.38-3.762-.24-5.633-.476-3.858-.478-7.464-2.625-9.77-5.748-.311-.418-.6-.86-.86-1.314-2.194-3.827-2.484-8.693-.74-12.744q.175-.412.376-.82c2.003-4.024 5.62-7.412 5.986-11.876.115-1.401.202-2.882.314-4.393.588-8.037 1.787-16.96 10.805-20.076 6.611-2.284 14.698 1.483 17.203 8.012.738 1.93 1.047 4.03 2.033 5.841 3.36 6.169 12.105 5.95 19.088 5.202s15.993.049 18.214 6.712c.757 2.281.478 4.838 1.407 7.054 1.612 3.825 6.25 5.38 10.395 5.508 8.639.276 16.775-3.615 24.891-6.587 8.117-2.97 17.406-5.024 25.186-1.254 5.898 2.855 10.409 8.849 16.919 9.644 4.164.505 8.237-1.276 12.406-1.74 8.081-.91 16.515 3.125 24.203.475 3.472-1.197 6.354-3.64 9.586-5.388 3.229-1.743 7.311-2.745 10.502-.926 3.054 1.746 4.283 5.442 6.444 8.215 3.992 5.123 10.964 6.816 17.441 7.284q2.176.155 4.355.177a70 70 0 0 0 7.699-.336c1.827-.177 3.814-.39 5.363.59 3.089 1.962 1.723 7.22-1.487 8.986z"/><path fill="#DEF2FF" d="M250.459 59.931c-3.21 1.768-7.125 1.213-10.77.847a83.6 83.6 0 0 0-18.457.205 83.4 83.4 0 0 0-16.089 3.592c-3.379 1.118-7.064 2.454-10.384 1.164-1.472-.574-2.707-1.62-4.111-2.35-7.811-4.043-16.717 2.795-25.459 3.749-6.027.655-11.939-1.555-17.895-2.68-5.953-1.12-12.919-.822-16.987 3.669-3.983 4.398-4.746 12.242-10.472 13.802-2.967.814-6.565-.46-8.955 1.472-.885.719-1.429 1.765-2.167 2.634-4.349 5.122-13.001 1.986-17.514-2.99-4.516-4.974-7.713-11.626-13.849-14.372-7.33-3.28-15.73.306-23.05 3.612-6.214 2.811-16.153 6.84-22.582 2.32-5.652-3.973-5.182-12.983-13.583-14.696-1.847-.38-3.762-.24-5.633-.475-3.858-.478-7.464-2.626-9.77-5.748-.311-.418-.6-.86-.86-1.314-2.194-3.828-2.484-8.693-.74-12.745.117-.276.242-.546.376-.82 2.003-4.023 5.62-7.411 5.986-11.875.115-1.401.202-2.882.314-4.393.175.175.37.333.577.48 4.212 2.946 9.496-2.502 14.632-2.504 4.104-.009 7.393 3.576 8.947 7.376 1.552 3.8 1.929 7.988 3.382 11.83 1.454 3.835 4.508 7.553 8.603 7.862 3.719.278 6.959-2.262 10.172-4.164 3.21-1.898 7.665-3.109 10.395-.568.918.85 1.51 2.04 2.562 2.721 2.005 1.295 4.62.221 7.005.11 5.489-.258 9.668 4.657 12.807 9.168 3.14 4.505 6.978 9.561 12.466 9.815 6.442.298 10.874-6.037 14.797-11.157 4.114-5.365 9.9-10.477 16.648-10.08 6.292.368 11.177 5.332 16.589 8.567 11.165 6.674 26.404 5.707 36.635-2.325 1.91-1.5 3.727-3.257 6.049-3.961 6.106-1.855 10.45 3.66 15.698 5.346 2.5.8 5.199.44 7.819.615 3.934.262 7.666 1.729 11.397 2.991 2.708.913 15.95 4.964 14.832-1.532-.15-.861-.521-1.648-.923-2.43a70 70 0 0 0 7.699-.335c1.827-.178 3.813-.39 5.362.59 3.09 1.961 1.724 7.22-1.486 8.985z"/><path fill="#B1E0FF" d="M221.235 60.98a83.4 83.4 0 0 0-16.089 3.593c-3.379 1.117-7.068 2.453-10.384 1.16-1.473-.573-2.707-1.622-4.112-2.349-7.81-4.043-16.714 2.793-25.456 3.749-6.027.655-11.939-1.555-17.895-2.678-5.952-1.12-12.919-.822-16.987 3.67-3.983 4.398-4.748 12.238-10.472 13.801-2.966.811-6.562-.459-8.955 1.473-.885.718-1.429 1.764-2.164 2.633-4.352 5.123-13.001 1.986-17.517-2.989s-7.712-11.627-13.848-14.372c-7.33-3.281-15.728.308-23.05 3.611-6.212 2.809-16.154 6.841-22.582 2.32C26.07 70.629 26.54 61.62 18.14 59.907c-1.846-.377-3.761-.238-5.633-.473-3.86-.478-7.464-2.628-9.772-5.75q1.435.697 2.948 1.051c6.772 1.587 16.116-2.713 16.514-10.392.203-3.89-1.75-8.141.252-11.485.352-.588.866-1.137 1.535-1.276.997-.202 1.967.593 2.355 1.533s.35 1.988.388 3.005c.235 6.158 3.442 11.57 6.778 16.553 2.713 4.048 5.327 8.862 11.313 6.644 2.686-.99 4.71-3.372 7.445-4.208 5.27-1.614 9.321 2.97 14.271 2.943 4.044-.022 7.858-4.809 11.994-2.623 2.054 1.085 2.833 3.56 3.663 5.726A33.2 33.2 0 0 0 94.86 76.891c2.59 1.702 5.571 3.065 8.661 2.885 3.09-.177 6.226-2.303 6.709-5.363.416-2.614-.082-6.671 2.566-6.66 1.456.005 2.319 1.579 3.502 2.428 3.12 2.233 7.376-1.144 8.737-4.731 1.36-3.582 1.645-7.852 4.478-10.434 3.117-2.84 8.105-2.354 11.884-.488 3.778 1.865 6.903 4.852 10.611 6.854 9.034 4.877 21.265 2.808 28.196-4.767 2.964-3.24 6.442-7.822 10.578-6.344 3.73 1.333 4.199 6.581 7.221 9.138 3.617 3.063 9.021 1.178 13.742.708 3.196-.317 6.368.104 9.499.866z"/></svg>