<svg xmlns="http://www.w3.org/2000/svg" width="140" height="36" fill="none"><g fill="#001f54"><path d="M120.661 19.062c-.677-.462-1.415-.77-2.154-1.17-.461-.246-.954-.492-1.354-.83-.677-.554-.553-1.662.185-2.154 1.015-.677 2.708-.308 2.892 1.077 0 .03.031.061.062.061h1.538c.031 0 .062-.03.062-.061-.092-.954-.462-1.754-1.139-2.277a3.53 3.53 0 0 0-2.184-.739c-4.062 0-4.431 4.308-2.246 5.662.246.154 2.4 1.23 3.169 1.723.769.461.985 1.323.677 2-.308.615-1.077 1.046-1.846.985-.862-.062-1.508-.524-1.754-1.231a2.7 2.7 0 0 1-.062-.493c0-.03-.03-.061-.061-.061h-1.662c-.031 0-.061.03-.061.061 0 1.2.307 1.877 1.107 2.493.77.584 1.6.83 2.493.83 2.277 0 3.446-1.292 3.692-2.615.185-1.292-.185-2.462-1.354-3.261M48.138 13.215H46.6c-.03 0-.062.03-.062.03l-1.384 4.524c-.03.061-.093.061-.123 0l-1.385-4.523c0-.031-.03-.031-.061-.031H41.06c-.03 0-.061.03-.061.061v11.539c0 .03.03.061.061.061h1.662c.03 0 .062-.03.062-.061v-8.77c0-.06.092-.092.123-.03l1.384 4.554.093.307c0 .031.03.031.061.031h1.293c.03 0 .061-.03.061-.03l.092-.308 1.385-4.554c.03-.062.123-.062.123.03v8.77c0 .03.03.061.062.061h1.661c.03 0 .062-.03.062-.061V13.276c0-.03-.031-.061-.062-.061zM95.092 13.215c-.031 0-.062.03-.062.03l-1.384 4.524c-.031.061-.093.061-.124 0l-1.384-4.523c0-.031-.031-.031-.062-.031h-2.554c-.03 0-.061.03-.061.061v11.539c0 .03.031.061.061.061h1.662c.031 0 .062-.03.062-.061v-8.77c0-.06.092-.092.123-.03l1.384 4.554.093.307c0 .031.03.031.061.031h1.292c.031 0 .062-.03.062-.03l.092-.308 1.385-4.554c.031-.062.123-.062.123.03v8.77c0 .03.031.061.061.061h1.662c.031 0 .062-.03.062-.061V13.276c0-.03-.031-.061-.062-.061zM73.554 13.215h-7.907c-.031 0-.062.03-.062.061v1.446c0 .031.03.062.062.062h3.046v10.03c0 .032.03.062.061.062h1.662c.03 0 .061-.03.061-.061v-10.03h3.046c.031 0 .062-.032.062-.063v-1.446c.031-.03 0-.061-.031-.061M83.4 24.877h1.508c.031 0 .061-.03.061-.092l-3.138-11.57c0-.03-.031-.03-.062-.03h-2.184c-.031 0-.062.03-.062.03l-3.138 11.57c0 .03.031.092.061.092h1.508c.031 0 .062-.03.062-.03l.923-3.386c0-.03.03-.03.061-.03h3.354c.031 0 .062.03.062.03l.923 3.385s.03.03.061.03m-4-5.108 1.231-4.523c.031-.061.092-.061.123 0l1.231 4.523c0 .03-.031.093-.062.093h-2.431c-.061 0-.092-.062-.092-.093M109.307 24.877h1.508c.031 0 .062-.03.062-.092l-3.139-11.57c0-.03-.031-.03-.061-.03h-2.1849999999999996c-.031 0-.062.03-.062.03l-3.138 11.57c0 .03.031.092.062.092h1.507c.031 0 .062-.03.062-.03l.923-3.386c0-.03.031-.03.061-.03h3.354c.031 0 .062.03.062.03l.923 3.385s.031.03.061.03m-4-5.108 1.231-4.523c.031-.061.092-.061.123 0l1.231 4.523c0 .03-.031.093-.062.093h-2.43c-.062 0-.093-.062-.093-.093M55.954 23.153v-3.569c0-.03.03-.061.061-.061h4.462c.03 0 .061-.031.061-.062v-1.446c0-.03-.03-.062-.061-.062h-4.462a.066.066 0 0 1-.061-.061v-3.046c0-.031.03-.062.061-.062h5.046c.031 0 .062-.03.062-.062v-1.446c0-.03-.031-.061-.062-.061h-6.83c-.031 0-.062.03-.062.061v11.539000000000001c0 .03.03.061.062.061h7.046c.03 0 .061-.03.061-.061v-1.508c0-.03-.03-.061-.061-.061h-5.293c0-.031-.03-.062-.03-.093M135.924 24.754l-5.785-5.97q-.045-.045 0-.092l5.2-5.415c.031-.03 0-.092-.03-.092h-2.123c-.031 0-.031 0-.031.03l-4.431 4.616c-.031.03-.092 0-.092-.031v-4.492c0-.031-.031-.062-.062-.062h-1.692c-.031 0-.062.03-.062.062v11.538c0 .03.031.062.062.062h1.661c.031 0 .062-.031.062-.062V19.77c0-.061.062-.092.092-.03l4.985 5.169.031.03h2.123c.092-.061.123-.153.092-.184"/></g><g stroke-linecap="round" stroke-linejoin="round"><path fill="#E17726" stroke="#E17726" d="m29.585 7-10.093 7.508 1.877-4.431z"/><g fill="#E27625" stroke="#E27625"><path d="m6.26 7 10.032 7.57-1.785-4.493zM25.953 24.384l-2.708 4.123 5.785 1.6 1.63-5.63zM5.215 24.477l1.63 5.63 5.754-1.6-2.677-4.123z"/><path d="m12.291 17.431-1.6 2.43 5.693.247-.185-6.154zM23.584 17.43l-3.97-3.538-.123 6.216 5.693-.247zM12.599 28.508l3.446-1.662-2.985-2.338zM19.83 26.846l3.416 1.662-.462-4z"/></g><g fill="#D5BFB2" stroke="#D5BFB2"><path d="m23.246 28.508-3.416-1.661.277 2.215-.03.954zM12.6 28.508l3.2 1.508-.031-.954.277-2.215z"/></g><path fill="#233447" stroke="#233447" d="M15.862 23.031 13 22.201l2-.924zM20.016 23.031l.83-1.754 2.031.923z"/><g fill="#CC6228" stroke="#CC6228"><path d="m12.6 28.508.493-4.123-3.17.092zM22.786 24.385l.462 4.123 2.707-4.03zM25.185 19.862l-5.693.246.523 2.923.831-1.754 2.03.923zM13.001 22.2l2-.923.862 1.754.523-2.923-5.693-.246z"/></g><g fill="#E27525" stroke="#E27525"><path d="m10.692 19.861 2.37 4.647L13 22.2zM22.877 22.2l-.092 2.308 2.4-4.647zM16.385 20.107l-.523 2.924.646 3.476.154-4.584zM19.493 20.107l-.277 1.816.123 4.584.677-3.476z"/></g><path fill="#F5841F" stroke="#F5841F" d="m20.015 23.031-.677 3.477.492.338 2.954-2.338.092-2.308zM13 22.2l.062 2.308 2.984 2.338.462-.338-.646-3.477z"/><path fill="#C0AC9D" stroke="#C0AC9D" d="m20.077 30.016.03-.954-.277-.216h-3.815l-.246.216.03.954-3.2-1.508 1.108.923L15.984 31h3.877l2.277-1.57 1.108-.923z"/><path fill="#161616" stroke="#161616" d="m19.83 26.846-.492-.338h-2.831l-.462.338-.276 2.216.246-.216h3.815l.277.216z"/><g fill="#763E1A" stroke="#763E1A"><path d="m30.016 15 .861-4.154L29.585 7l-9.754 7.261 3.754 3.17 5.292 1.538 1.17-1.354-.493-.369.8-.738-.615-.493.8-.615zM5 10.846 5.861 15l-.553.4.8.615-.616.493.831.738-.523.37 1.17 1.353 5.322-1.538 3.754-3.17L6.261 7z"/></g><path fill="#F5841F" stroke="#F5841F" d="m28.877 18.97-5.292-1.54 1.6 2.431-2.4 4.647 3.17-.031h4.707zM12.292 17.43l-5.323 1.54-1.754 5.507h4.708l3.138.03-2.37-4.646zM19.492 20.108l.339-5.846 1.538-4.185h-6.861l1.538 4.185.339 5.846.123 1.846v4.554h2.83v-4.554z"/></g></svg>