<svg xmlns="http://www.w3.org/2000/svg" width="320" height="193" fill="none"><path fill="#000" d="m40.407 137.938-27.724 14.011L0 165.661l37.365 12.084 134.375 14.654 104.339-10.627L320 168.704z" opacity=".3" style="mix-blend-mode:overlay"/><path fill="#C7E6FF" d="m287.863 166.9-11.783-42.206-80.858-33.166L55.405 77.002l-37.922 9.684 10.926 55.319 10.97 21.425 126.363 24.209z"/><path fill="#95C7F0" d="m17.483 86.686 10.926 55.319 10.97 21.425 95.725 18.339-17.396-12.683-26.482-2.014 8.828-8.013 8.441-21.725 5.613-8.441-57.76-51.805-.986-.086z"/><path fill="#E8F4FF" d="m114.108 128.893-5.613 8.441 56.219 20.097 18.596 27.209 104.553-17.74-11.783-42.206-80.858-33.166-139.86-14.526-37.88 9.684 74.13 45.635z"/><path fill="#F5FAFF" d="m91.612 132.321 61.061-23.911 123.407 16.284-80.858-33.166-139.86-14.526-37.88 9.684z"/><path fill="#3A3A3A" d="M149.075 121.456c57.105 9.792 104.612 11.972 106.111 4.868 1.498-7.104-43.58-20.8-100.686-30.593C97.395 85.94 49.888 83.76 48.39 90.863c-1.499 7.104 43.58 20.801 100.685 30.593" opacity=".3"/><path fill="#00A3FF" d="M98.089 103.606s-42.522-4.521-35.103-19.25c.772-1.534 1.848-2.835 3.143-3.937 9.72-8.256 31.847-5.193 31.847-5.193l.087 22.164z"/><path fill="#3A3A3A" d="M94.002 103.265c-3.063-.461-7.514-1.236-12.096-2.393-4.847-1.224-8.892-2.629-12.023-4.176-3.936-1.946-6.44-4.13-7.44-6.494-.787-1.86-.657-3.853.386-5.925.752-1.494 1.83-2.844 3.202-4.01 2.242-1.904 5.324-3.363 9.158-4.337 3.057-.776 6.598-1.248 10.527-1.404 6.683-.264 12.25.493 12.306.501l.14.02.114 28.785-.23-.025c-.034-.004-1.597-.173-4.045-.542m3.787-27.85c-.903-.115-6.046-.72-12.113-.48-6.123.242-14.466 1.418-19.44 5.642-1.323 1.125-2.361 2.424-3.084 3.86-.98 1.946-1.103 3.815-.365 5.557.968 2.286 3.418 4.415 7.284 6.326 3.111 1.538 7.135 2.935 11.96 4.153 7.432 1.876 14.518 2.746 15.87 2.902l-.025-5.958z"/><path fill="#3A3A3A" d="M98.46 103.605s-42.93-4.617-35.455-19.564c.777-1.556 2.534-4.441 7.95-6.742-1.712 1.617-3.545 6.858.652 9.953 6.14 4.532 21.422 9.656 26.82 10.044z" opacity=".3"/><path fill="#3A3A3A" d="M98.177 105.013c-3.529-.582-8.7-1.542-14.02-2.904-5.597-1.433-10.272-3.028-13.897-4.739-4.767-2.25-7.69-4.656-8.935-7.353-.96-2.08-.887-4.26.214-6.48 1.076-2.171 3.02-4.022 5.777-5.5 2.305-1.238 5.243-2.249 8.732-3.005 5.383-1.167 12.076-1.754 19.894-1.745l-.203 2.694c-7.643-.01-14.16.56-19.37 1.69-3.252.704-5.96 1.63-8.045 2.75-2.22 1.19-3.75 2.609-4.546 4.215-.7 1.415-.748 2.74-.143 4.051.985 2.136 3.611 4.224 7.805 6.206 3.492 1.65 8.026 3.194 13.477 4.59 9.34 2.394 18.219 3.528 18.308 3.539l-.496 2.676c-.04-.005-1.795-.229-4.551-.683z"/><path fill="#7C001B" d="M122.4 79.421s-1.075 2.812-2.76 5.168c-1.318 1.84-3.009 3.399-4.853 3.122-2.091-.314-3.083-2.274-3.518-4.508-.648-3.319-.073-7.237-.073-7.237z"/><path fill="#3A3A3A" d="M114.739 87.911c-1.877-.282-3.106-1.843-3.651-4.64-.648-3.315-.08-7.268-.074-7.308l.037-.255 11.593 3.575-.076.197c-.01.028-1.106 2.868-2.789 5.22-1.703 2.377-3.399 3.458-5.041 3.212zm-3.394-11.68c-.111.92-.435 4.145.105 6.907.515 2.642 1.654 4.113 3.384 4.373 1.493.224 3.062-.796 4.665-3.033 1.392-1.948 2.376-4.24 2.652-4.916z"/><path fill="#FF6982" d="M120.143 85.123c-1.338 1.878-3.057 3.47-4.933 3.187-2.127-.322-3.138-2.325-3.583-4.608a7.48 7.48 0 0 1 4.521-.726c1.692.256 3.091 1.056 3.996 2.146z"/><path fill="#3A3A3A" d="M115.161 88.51c-1.908-.289-3.158-1.883-3.716-4.74l-.033-.17.157-.08a7.67 7.67 0 0 1 4.628-.745c1.67.253 3.122 1.033 4.09 2.199l.098.118-.102.144c-1.729 2.425-3.452 3.526-5.121 3.274zm-3.312-4.7c.541 2.588 1.688 4.032 3.41 4.292 1.485.225 3.044-.767 4.634-2.948-.917-1.04-2.258-1.739-3.795-1.971a7.3 7.3 0 0 0-4.249.626"/><path fill="#3A3A3A" d="M114.666 88.942c-1.912-.315-4.328-1.823-4.976-7.218-.354-2.94-.023-5.726-.009-5.843l2.516.132c-.004.026-.307 2.603.014 5.214.381 3.095 1.402 4.8 3.036 5.07 1.825.3 3.77-2.38 4.767-4.005 1.497-2.438 2.464-5.028 2.474-5.054l2.354.798c-.043.116-1.065 2.859-2.708 5.546-1 1.635-2.031 2.919-3.064 3.813-1.462 1.266-2.944 1.787-4.404 1.547"/><path fill="#00A3FF" d="M231.244 54.275c-3.35 14.295-10.22 12.372-14.125 10.428-2.482-1.237-6.976-9.931-7.981-16.077-.582-3.535-.012-6.23 2.76-6.177 14.297.27 15.42-7.585 19.325-5.641l.027.015c3.873 1.963 1.937 9.166-.007 17.452z"/><path fill="#3A3A3A" d="M220.757 66.146c-1.155-.174-2.395-.593-3.731-1.258-2.647-1.32-7.096-10.254-8.069-16.204-.421-2.56-.208-4.392.634-5.446.539-.676 1.324-1.009 2.333-.99 8.494.162 12.301-2.562 14.82-4.363 1.693-1.21 2.916-2.086 4.573-1.26l.015.007.016.01c3.789 1.923 2.206 8.628.372 16.392l-.298 1.267c-1.342 5.729-3.4 9.44-6.115 11.034-1.355.794-2.86 1.065-4.55.811m9.555-29.425c-1.087-.164-2.022.505-3.398 1.489-2.561 1.832-6.431 4.6-15.044 4.437-.887-.017-1.566.263-2.02.83-.744.932-.929 2.693-.535 5.09.461 2.815 1.739 6.489 3.42 9.827 1.617 3.21 3.332 5.557 4.475 6.128 3.187 1.586 5.789 1.74 7.957.468 2.604-1.528 4.589-5.141 5.901-10.74l.298-1.267c1.796-7.606 3.348-14.175-.209-15.977l-.014-.008-.015-.008a2.8 2.8 0 0 0-.816-.269"/><path fill="#fff" d="M230.952 36.898c-2.274 7.081-10.806 9.968-16.809 9.438-2.055-.182-3.732 3.149-5.854 2.643-.597-3.619-.012-6.377 2.828-6.323 14.655.279 15.804-7.763 19.807-5.772z" opacity=".4"/><path fill="#3A3A3A" d="M223.628 70.135c-1.671-.275-3.127-1.56-4.455-2.734-.814-.718-1.583-1.396-2.273-1.737-1.032-.509-2.222-1.904-3.638-4.265-1.202-2.005-2.473-4.578-3.58-7.246-1.165-2.808-2.056-5.487-2.579-7.745-.652-2.818-.692-4.81-.12-6.093.254-.57 1.283-2.36 3.837-1.421 7.357 2.703 11.437.315 14.716-1.603 2.116-1.238 4.113-2.408 6.206-1.375 2.311 1.139 3.433 4.109 3.337 8.826-.072 3.554-.852 8.034-2.196 12.612-2.264 7.709-4.491 11.59-7.221 12.583a3.96 3.96 0 0 1-2.034.197zm-14.384-28.858c-.083.187-.332.98.067 3.191.547 3.035 2.098 7.453 4.048 11.53 2.112 4.416 3.941 6.854 4.747 7.251.957.472 1.875 1.283 2.764 2.068 1.433 1.265 2.914 2.572 4.145 2.125 1.194-.435 3.114-2.641 5.475-10.684 1.275-4.34 2.014-8.553 2.081-11.862.072-3.55-.65-5.88-2.034-6.562-.924-.456-1.979.116-3.919 1.252-3.339 1.953-8.384 4.907-16.785 1.82-.325-.12-.508-.131-.589-.127z"/><path fill="#FFB236" d="M235.212 127.738c-2.679 1.743-9.844.858-17.108-.469-5.19-.953-10.427-2.132-14.123-2.742-7.347-1.212 8.486-12.143 18.387-15.877 3.69-1.389 8.905-2.969 12.315-1.781q.616.215 1.146.555c5.839 3.795-.73 7.443 1.089 9.834 2.81 3.696 2.244 7.909-1.705 10.48z"/><path fill="#3A3A3A" d="M234.508 106.347c-1.338 3.878-5.968 14.934-16.831 20.928-5.052-.857-10.144-1.941-13.743-2.482-7.156-1.075 8.665-12.43 18.467-16.4 3.653-1.477 8.804-3.178 12.107-2.047z" opacity=".3"/><path fill="#3A3A3A" d="M214.188 127.922c-5.79-.961-11.837-2.137-16.944-3.131-3.592-.699-6.693-1.302-8.788-1.65-.525-.087-.913-.207-1.222-.379a1.65 1.65 0 0 1-.894-1.483c.008-1.372 1.462-2.206 2.824-2.88 1.232-.609 2.97-1.322 5.312-2.18 4.262-1.559 9.722-3.304 15.002-4.991 4.919-1.571 9.566-3.056 12.416-4.137 6.957-2.639 11.736-3.011 14.607-1.135 1.961 1.281 2.954 2.745 3.034 4.474.07 1.496-.579 2.835-1.101 3.911-.556 1.148-.722 1.597-.546 1.831 1.682 2.225 2.346 4.747 1.868 7.102-.448 2.206-1.83 4.124-3.997 5.542-1.304.854-4.3 1.621-15.999-.033a232 232 0 0 1-5.571-.862zm-23.741-7.236c2 .358 4.568.857 7.449 1.418 6.755 1.314 15.162 2.949 22.396 3.972 3.901.552 7.089.868 9.475.94 3.564.109 4.556-.351 4.775-.495 1.488-.974 2.423-2.226 2.707-3.62.314-1.553-.186-3.299-1.411-4.92-1.195-1.581-.312-3.405.333-4.736.962-1.984 1.543-3.183-1.135-4.931-2.174-1.421-6.365-.969-12.454 1.34-2.916 1.106-7.595 2.602-12.549 4.184-4.842 1.547-9.849 3.147-13.914 4.601-2.828 1.01-4.583 1.737-5.673 2.247z"/><path fill="#00A3FF" d="M224.643 112.127c-11.671 11.254-19.346 13.521-43.419 8.525-6.074-1.261-11.118-2.261-15.247-3.101-12.247-2.494-16.497-3.584-15.923-5.919.079-.316.287-.802.603-1.443 1.796-3.639 7.027-12.18 10.845-21.712 2.134-5.33 3.823-10.969 4.225-16.23.735-9.622-.262-16.81-1.202-21.089-.657-2.986-1.288-4.562-1.288-4.562s8.909-9.812 23.599-11.754c14.688-1.943 31.367 1.029 41.864 17.064 4.099 6.264 6.683 14.6 7.406 23.302a60 60 0 0 1 .199 5.993c-.186 11.696-3.804 23.35-11.663 30.926z"/><path fill="#00A3FF" d="M164.77 116.295s-52.67-3.883-44.012-20.702c.698-1.355 1.738-2.538 3.05-3.57q.47-.373.985-.715c8.936-6.009 27.492-6.288 36.388-6.034 2.562.07 4.324.188 4.826.221l.146.011-1.114 24.792-.23 5.174z"/><path fill="#3A3A3A" d="M152.863 115.093a155 155 0 0 1-8.475-1.509c-6.093-1.27-11.163-2.772-15.067-4.468-4.907-2.13-7.99-4.579-9.16-7.279-.854-1.97-.707-4.098.44-6.324.688-1.337 1.736-2.564 3.113-3.648.309-.244.645-.489.999-.725 3.922-2.636 10.077-4.453 18.292-5.396 6.851-.787 13.679-.799 18.2-.67 1.697.047 3.322.121 4.827.222l.311.024-1.401 31.192-.213-.015c-.071-.005-5.168-.39-11.868-1.403zm13.091-29.389c-1.501-.1-3.116-.173-4.804-.22-4.511-.129-11.321-.116-18.151.668-8.156.938-14.252 2.731-18.119 5.33-.344.23-.671.467-.971.705-1.325 1.042-2.328 2.216-2.985 3.49-1.079 2.098-1.22 4.098-.418 5.947 1.135 2.618 4.16 5.009 8.99 7.106 3.885 1.687 8.933 3.183 15.004 4.449 9.504 1.981 18.597 2.769 20.091 2.89l.027-.585.229-5.171 1.106-24.608z"/><path fill="#fff" d="M208.333 41.3c.846.732 1.257 1.541 1.073 2.321-.461 1.96-4.516 2.985-9.06 2.287-4.543-.698-7.849-2.854-7.388-4.813.173-.735.85-1.337 1.87-1.768-15.522.29-26.227 7.968-31.779 13.255-.581-3.159-1.177-4.82-1.177-4.82s9.311-10.599 24.262-12.952c14.949-2.354 31.777.474 41.969 17.3 3.979 6.573 6.364 15.377 6.851 24.607-2.481-8.938-9.819-29.164-26.623-35.417z" opacity=".4"/><path fill="#fff" d="m168.643 104.5-.003-.001c-1.376.726-5.59 1.79-11.585 2.705-1.178.178-2.426.354-3.732.517-13.283 1.673-32.833 2.374-50.232-1.765-.835-.2-1.68-.401-2.524-.615-3.92-.994-7.849-2.243-11.136-4.615-3.9-2.82-5.381-8.977-5.747-15.35-.553-9.545 1.38-19.568 1.38-19.568l12.24-26.857 50.305 7.658 16.829 7.818 4.197 49.979.002.035z"/><path fill="#3A3A3A" d="M150.919 73.576c1.874-6.009-.445-11.826-5.181-12.994s-10.093 2.756-11.967 8.765.446 11.826 5.181 12.994 10.093-2.757 11.967-8.765"/><path fill="#fff" d="M141.902 73.7c.667-2.142-.038-4.187-1.576-4.566-1.537-.38-3.324 1.049-3.991 3.191s.038 4.187 1.576 4.567c1.537.38 3.324-1.05 3.991-3.192"/><path fill="#fff" d="M148.816 69.198c.448-1.442.126-2.782-.717-2.991s-1.889.79-2.337 2.233c-.447 1.443-.125 2.782.718 2.992s1.889-.79 2.336-2.234" opacity=".2"/><path fill="#3A3A3A" d="M106.291 64.058c1.682-5.392-.4-10.614-4.65-11.662s-9.059 2.474-10.74 7.867c-1.683 5.393.4 10.614 4.65 11.662s9.058-2.474 10.74-7.867"/><path fill="#fff" d="M102.885 65.445c.599-1.923-.034-3.758-1.415-4.098-1.38-.341-2.984.94-3.582 2.863-.599 1.923.035 3.758 1.415 4.099 1.38.34 2.984-.942 3.582-2.864"/><path fill="#fff" d="M97.34 58.209c.402-1.295.114-2.497-.643-2.685s-1.696.71-2.097 2.005-.113 2.496.644 2.684 1.695-.71 2.097-2.004" opacity=".2"/><path fill="#00A3FF" d="m168.235 110.615-2.935 5.765c-4.421-.561-7.474-4.135-9.12-9.02-2.092-6.203-1.913-14.52.618-21.45 6.813-18.659 4.23-37.059-17.785-37.342-14.34-.185-17.498 27.282-17.498 27.282-.907-.888-3.55-3.537-4.835-3.749-1.153-.19-4.976 1.52-6.085 1.953 0 0 12.368-25.469-3.33-28.05C93.269 43.7 87.318 56.04 85.915 75.557c-.359 4.97-.069 10.917 2.08 16.331 2.234 5.624 6.475 10.674 14.089 13.444 0 0-.716.117-1.855.185-2.758.155-7.994-.005-11.56-2.919-6.128-5.007-10.522-16.162-8.768-27.972q.266-1.8.73-3.612c.403-1.568.612-3.187.967-4.799.908-4.13 1.968-8.11 3.221-11.876 6.059-18.19 16.697-31.341 37.054-31.753 2.761-.055 5.701.125 8.829.555q.574.079 1.152.17c-.884-4.13-.925-10.595 3.308-11.332 3.389-.59 5.776 4.785 6.639 7.09.137.374.628.393.847.035q.148-.24.315-.482c2.157-3.059 7.032-5.938 9.16-2.233 2.019 3.52-1.76 7.787-4.587 10.773 5.595 1.982 10.223 4.475 13.891 7.562 6.222 5.243 9.683 12.178 11.432 19.54l.001.007c.788 5.104.713 10.634.017 16.44-.406 3.394-1.023 6.879-1.803 10.428a118 118 0 0 1-2.004 7.857c-1.427 4.842-.778 10.33-.484 15.598 0 .014-.087.38-.086.39.002.021-.085.374-.086.39.12 2.028-.44 3.33-.18 5.24z"/><path fill="#3A3A3A" d="M154.54 104.268c-13.38 2.017-33.315 7.04-50.666 3.026-.833-.194-10.7-2.538-14.233-5.567-6.07-5.203-10.803-20.932-6.135-33.044.419 3.497-1.24 9.348 1.36 15.482 1.688 3.979 5.264 10.446 14.119 12.81 17.834 4.758 55.955 3.097 55.955 3.097z" opacity=".3"/><path fill="#fff" d="M171.219 72.023c-.239-29.735-18.435-36.604-23.529-38.493-5.22-1.936-30.033-9.33-45.79 1.676-8.695 6.072-14.98 15.167-18.634 21.504 6.62-19.118 17.69-33.065 38.145-33.907 2.774-.115 5.722.014 8.851.4.586.07 1.968 1.932 2.562 2.022.426.065 3.287.817 6.18 1.59 1.842.493 3.906-.152 5.457-1.683 2.718-2.682 5.536-5.905 4.732-7.056-2.083-2.974-6.337 1.576-6.337 1.576l-.148-1.418c2.256-3.237 7.236-6.343 9.264-2.517 2.263 4.268-3.543 9.779-6.326 12.872 11.235 2.042 9.188.875 15.131 6.086 6.096 5.35 9.368 12.524 10.908 20.179v.002c.64 5.313.403 11.09-.466 17.167" opacity=".4"/><path fill="#FEB71F" d="M123.539 77.62s-4.589 3.343-8.009 2.776c-6.316-1.045-10.062-5.071-9.999-5.757.017-.164.085-.344.203-.53 1.217-1.92 7.528-4.71 11.775-3.422 3.591 1.089 5.227 4.609 5.789 6.174.17.466.241.76.241.76"/><g opacity=".35"><path fill="#000" d="M123.715 77.31s-4.706 3.673-8.141 3.125c-6.341-1.011-10.02-5.272-9.94-6.01.021-.177.094-.372.217-.573 1.927 1.193 7.513 3.837 17.641 2.645.16.498.224.812.224.812z"/><path fill="#3A3A3A" d="M115.523 80.637c-3.443-.547-5.947-2-7.441-3.122-1.537-1.154-2.693-2.504-2.631-3.073q.04-.326.254-.677l.11-.178.151.093c1.91 1.178 7.442 3.79 17.518 2.61l.134-.016.044.136c.161.501.227.818.23.83l.031.15-.123.096c-.194.151-4.81 3.702-8.277 3.15m-9.608-6.473a1 1 0 0 0-.083.282c-.006.233.735 1.393 2.527 2.73 1.46 1.09 3.905 2.5 7.261 3.034 3.007.477 7.094-2.407 7.862-2.974a11 11 0 0 0-.14-.5c-9.823 1.122-15.359-1.341-17.428-2.571z"/></g><path fill="#3A3A3A" d="M114.762 81.627c-5.891-.973-9.386-2.612-10.387-4.872-.343-.772-.359-1.584-.046-2.225.978-2.005 2.933-3.763 5.363-4.824a12.8 12.8 0 0 1 8.271-.67c3.004.773 4.65 2.824 5.504 4.408.91 1.691 1.279 3.532 1.172 4.477-.065.576-.412 1.115-1.063 1.65-1.716 1.408-5.206 2.652-8.814 2.056m-8.075-6.22c.17.43 1.332 2.338 8.661 3.548 3.299.544 5.956-.81 6.739-1.444-.138-1.193-1.138-4.877-4.908-5.847-4.888-1.257-9.144 1.314-10.492 3.743"/><g opacity=".35"><path fill="#fff" d="M118.425 92.768a2 2 0 0 1 .091-.093q-.056.06-.091.093"/><path fill="#3A3A3A" d="m118.53 92.917-.231-.277q.04-.048.105-.109l.232.278-.028.03a1 1 0 0 1-.078.079z"/></g><g opacity=".35"><path fill="#fff" d="M118.934 92.248q.053-.054.111-.11c-.235.247-.413.44-.53.558l.419-.449"/><path fill="#3A3A3A" d="m118.626 92.835-.233-.27.1-.107.325-.345.037-.037q.044-.046.089-.086l.222.281-.21.222q-.207.218-.329.342z"/></g><path fill="#00A3FF" d="M165.921 85.454s-38.348-2.891-45.18 10.029c-6.831 12.92 37.979 19.961 37.979 19.961"/><path fill="#3A3A3A" d="M158.661 115.634c-.086-.013-8.734-1.386-17.739-3.969-5.294-1.519-9.674-3.153-13.022-4.857-4.21-2.142-6.796-4.412-7.689-6.745-.583-1.523-.457-3.093.376-4.666 1.586-3.001 4.972-5.398 10.062-7.125 4.044-1.372 9.174-2.33 15.249-2.85 10.331-.883 19.953-.177 20.049-.17l-.073.408c-.096-.007-9.693-.712-19.998.17-6.045.517-11.145 1.47-15.16 2.831-4.981 1.69-8.282 4.013-9.81 6.903-.767 1.45-.883 2.898-.346 4.303 1.553 4.057 8.641 8.001 20.497 11.401 8.988 2.578 17.619 3.948 17.705 3.962l-.099.404zM80.095 73.385c-.66-.108-1.085-.757-.956-1.474.3-1.673.63-3.329.98-4.922 3.07-13.975 7.64-24.301 13.974-31.57 3.684-4.229 8.049-7.486 12.975-9.68 5.256-2.343 11.33-3.555 18.053-3.604 1.195-.01 3.137.135 4.562.26-.332-2.457-.516-6.516 1.265-9.245.854-1.308 2.073-2.132 3.527-2.386 3.613-.628 6.103 3.426 7.482 6.631 1.642-2 4.234-3.84 6.696-3.956 1.782-.084 3.214.726 4.142 2.342 1.191 2.077 1.18 4.35-.033 6.755-.87 1.726-2.215 3.236-3.367 4.48a44.6 44.6 0 0 1 10.273 5.121c3.645 2.463 6.66 5.355 8.962 8.596 2.898 4.082 4.663 8.723 5.244 13.795.468 4.076.152 8.189-.182 12.543-.219 2.846-.445 5.788-.478 8.958-.008.74-.583 1.38-1.285 1.43s-1.264-.51-1.257-1.248c.034-3.264.264-6.254.486-9.147.324-4.215.629-8.196.192-12.01-.968-8.436-5.399-15.375-13.169-20.623-5.849-3.951-11.444-5.384-11.5-5.398l-1.921-.482 1.378-1.663c.349-.42.772-.876 1.219-1.358 2.692-2.897 4.793-5.515 3.235-8.232-.485-.847-1.129-1.221-2.025-1.18-1.884.09-4.301 2.048-5.375 3.82-.372.61-1.008.97-1.663.943s-1.205-.435-1.437-1.065c-1.244-3.33-3.317-6.768-5.397-6.406-.727.127-1.264.489-1.689 1.14-1.289 1.974-1.166 6.02-.508 8.943l.437 1.938-1.897-.197c-.041-.004-4.206-.433-6.098-.416-22.545.163-36 13.692-42.345 42.577a128 128 0 0 0-.96 4.812c-.131.736-.797 1.267-1.487 1.184l-.053-.007zm62.372-54.72.002.008z"/><path fill="#3A3A3A" d="m189.251 123.533.575-2.618c20.142 3.315 36.153-5.626 42.828-23.916 7.144-19.572 1.48-46.646-20.363-58.073-15.881-8.308-33.136-1.218-42.007 3.747l-1.036-2.32c4.268-2.388 10.995-5.547 18.799-7.033 9.417-1.792 17.995-.712 25.497 3.213a43.3 43.3 0 0 1 13.943 11.555c3.578 4.517 6.315 9.736 8.133 15.514 1.743 5.545 2.571 11.357 2.458 17.276-.112 5.902-1.151 11.588-3.089 16.898-3.287 9.004-8.913 16.191-16.269 20.782-3.965 2.475-8.399 4.166-13.178 5.026-5.061.911-10.542.894-16.29-.052z"/><path fill="#3A3A3A" d="m192.57 122.82-93.294-15.784c-5.817-.984-10.437-3.622-13.735-7.841-2.623-3.357-4.397-7.699-5.274-12.904-1.474-8.744.08-16.844.147-17.184l2.527.374-1.264-.187 1.264.186c-.015.079-1.519 7.958-.117 16.174 1.833 10.745 7.567 17.007 17.044 18.611l93.295 15.783z"/><path fill="#3A3A3A" d="M224.985 111.119c-12.155 12.19-20.003 14.751-44.277 9.915-6.125-1.22-11.213-2.183-15.378-2.994l-.037.839s-53.242-4.018-44.52-21.167c.703-1.382 1.752-2.587 3.076-3.639-4.742 7.506 8.375 13.107 26.151 16.445 4.92.926 10.198 1.675 15.554 2.245 14.292 1.522 29.129 1.752 39.179.545 22.841-2.738 30.899-27.204 32.952-35.286-.518 12.433-4.516 24.891-12.7 33.097" opacity=".3"/><path fill="#fff" d="M165.77 86.04c-1.836 1.21-6.81 3.348-12.357 4.012-5.659.675-21.177.171-29.667 1.947 9.089-6.266 28.021-6.5 37.099-6.206 2.615.082 4.413.211 4.925.247" opacity=".4"/><path fill="#3A3A3A" d="M143.313 113.864c-.21-.035-5.199-.867-10.701-2.728-7.591-2.566-12.242-5.748-13.822-9.46-.965-2.265-.797-4.671.498-7.15 2.965-5.671 11.826-9.01 26.34-9.924 10.531-.664 20.387.23 20.486.239.693.064 1.162.716 1.046 1.456s-.771 1.288-1.465 1.223c-.096-.008-9.794-.886-20.142-.232-6.027.38-11.083 1.197-15.029 2.426-4.685 1.46-7.722 3.467-9.028 5.965-.884 1.692-1.005 3.241-.369 4.735 1.283 3.014 5.572 5.829 12.403 8.142 5.328 1.804 10.317 2.639 10.367 2.647.684.113 1.108.799.947 1.533-.161.735-.846 1.238-1.531 1.126z"/><path fill="#3A3A3A" d="M232.649 40.694s-.532 11.298-10.477 4.51l3.665 5.837s2.203 4.397 2.807 4.895 2.322 2.383 2.578 2.828.401-3.19.401-3.19.989-7.165 1.083-7.557l1.406-5.883z" opacity=".3"/></svg>