<svg xmlns="http://www.w3.org/2000/svg" width="222" height="60" fill="none"><mask id="a" width="222" height="60" x="0" y="0" maskUnits="userSpaceOnUse" style="mask-type:luminance"><path fill="#fff" d="M221.542 0H0v60h221.542z"/></mask><g mask="url(#a)"><path fill="#0500FF" d="M100.662 14.189h10.576v5.924c3.465-5.324 7.452-5.924 13.292-5.924v10.468h-2.659c-6.995 0-10.344 3.293-10.344 9.813v11.127h-10.865zM159.816 45.597h-10.861v-2.994c-2.372 2.752-5.604 3.948-9.591 3.948-7.568 0-11.848-4.488-11.848-12.742V14.19h10.863V31.36c0 3.886 1.906 6.16 5.14 6.16s5.434-2.216 5.434-5.98V14.188h10.863zM162.469 35.897h10.173c.464 2.274 2.025 3.23 5.776 3.23 3.064 0 4.856-.717 4.856-2.031 0-1.02-.866-1.678-3.348-2.215l-8.207-1.857c-5.49-1.255-8.265-4.426-8.265-9.513 0-6.703 4.91-10.17 14.447-10.17 9.535 0 14.214 3.38 15.027 10.62h-10.111c-.172-1.912-2.139-3.081-5.373-3.081-2.598 0-4.271.835-4.271 2.094 0 1.075 1.095 1.913 3.295 2.455l8.607 2.094c5.662 1.373 8.382 4.247 8.382 8.912 0 6.464-5.607 10.292-15.137 10.292s-15.833-4.128-15.833-10.832h-.018000000000000002zM222.383 23.959v-9.77H195.57v9.774h8.001v21.634h10.807V23.96zM97.639 23.959v-9.77h-26.81v9.774h8v21.634h10.809V23.96zM.498 8.667 27.165-.001v60C8.118 51.998.498 36.664.498 27.999z"/><path fill="url(#b)" d="M53.835 8.667 27.168-.001v60c19.047-8.001 26.667-23.335 26.667-32z"/><path fill="url(#c)" d="M53.835 8.667 27.168-.001v60c19.047-8.001 26.667-23.335 26.667-32z"/></g><defs><linearGradient id="b" x1="26.042" x2="47.87" y1="67.542" y2="-11.405" gradientUnits="userSpaceOnUse"><stop offset=".26" stop-color="#48FF91"/><stop offset=".66" stop-color="#0094FF"/><stop offset=".8" stop-color="#0038FF"/><stop offset=".89" stop-color="#0500FF"/></linearGradient><linearGradient id="c" x1="46.494" x2="26.352" y1="-3.391" y2="59.992" gradientUnits="userSpaceOnUse"><stop offset=".02" stop-color="#00F"/><stop offset=".08" stop-color="#0094FF"/><stop offset=".16" stop-color="#48FF91"/><stop offset=".42" stop-color="#0094FF"/><stop offset=".68" stop-color="#0038FF"/><stop offset=".9" stop-color="#0500FF"/></linearGradient></defs></svg>